<?xml version="1.0" encoding="utf-8"?>
<svg viewBox="0 0 512 512" xmlns="http://www.w3.org/2000/svg" xmlns:bx="https://boxy-svg.com">
  <path fill="#fff" d="M 0 0 L 512 0 L 512 512 L 0 512 L 0 0 Z" style=""/>
  <g transform="matrix(0.371156, 0, 0, 0.371156, 263.236, 153.154)" style="">
    <g transform="matrix(1.16747, 0, 0, 1.16747, 34.0841, 55.9798)">
      <g id="standard_product_icon">
        <rect id="bounding" class="cls-1" width="512" height="512" style="fill: none;"/>
        <g id="art">
          <path class="cls-4" d="M144.4,272c-6.4,0-12.4-3.8-14.9-10.1L55.4,75.9c-3.3-8.2.7-17.5,8.9-20.8,8.2-3.3,17.5.7,20.8,8.9l74.2,186c3.3,8.2-.7,17.5-8.9,20.8-1.9.8-3.9,1.1-5.9,1.1h0Z" style="fill: rgb(251, 188, 4);"/>
          <g id="b">
            <path class="cls-5" d="M256,272c-6.4,0-12.4-3.8-14.9-10.1l-74.1-186c-2.6-6.6-.6-14.1,5-18.5,5.6-4.4,13.4-4.5,19.2-.4l260.1,186c7.2,5.1,8.9,15.1,3.7,22.3s-15.1,8.9-22.3,3.7L216.9,114.7l54,135.3c3.3,8.2-.7,17.5-8.9,20.8-1.9.8-4,1.1-5.9,1.1h0Z" style="fill: rgb(234, 67, 53);"/>
          </g>
          <path class="cls-3" d="M127.2,256l-72,180c-3.3,8.2.7,17.5,8.9,20.8s4,1.1,5.9,1.1c6.3,0,12.4-3.8,14.9-10.1l74.4-186c.8-2,1.1-4,1.1-5.9h-33.2Z" style="fill: rgb(52, 168, 83);"/>
          <path class="cls-2" d="M414.5,256l-197.7,141.2,54.1-135.3c.8-2,1.1-4,1.1-5.9h-33.2l-72,180c-2.6,6.6-.6,14.1,5,18.5,2.9,2.3,6.4,3.4,9.9,3.4s6.5-1,9.3-3l260.4-186c4.4-3.1,6.7-8,6.7-13h-43.5Z" style="fill: rgb(66, 133, 244);"/>
        </g>
      </g>
    </g>
  </g>
  <g transform="matrix(1.14831, 0, 0, 1.14831, -139.91, -25.5916)" style="">
    <path fill="#fff" d="M 162.133 189.092 L 272.372 189.092 L 299.767 216.487 L 299.767 350.065 L 162.133 350.065 L 162.133 189.092 Z" style="stroke: rgb(0, 0, 0); stroke-width: 10px;">
      <title>Paper</title>
    </path>
    <path d="M 95.029 66.774 L 122.422 94.167 L 95.029 94.167 L 95.029 66.774 Z" style="stroke: rgb(0, 0, 0); stroke-linejoin: bevel; fill: rgb(255, 255, 255); stroke-width: 10px;" transform="matrix(0.999999997036, 0.0000769999, -0.000078, 0.999999996959, 177.35, 122.31)" bx:shape="triangle 95.029 66.774 27.393 27.393 0 0 1@f76ac13b">
      <title>Corner</title>
    </path>
  </g>
  <path d="M -219.591 -198.04 L -205.412 -173.481 L -233.77 -173.481 L -219.591 -198.04 Z" style="transform-box: fill-box; transform-origin: 50% 50%;" transform="matrix(0, 1, -1, 0, 472.758001, 464.552495)" bx:shape="triangle -233.77 -198.04 28.358 24.559 0.5 0 1@67131cbc">
    <title>Arrow</title>
  </path>
  <rect width="127.462" height="127.462" fill="#f7df1e" x="187.102" y="46.469" style=""/>
  <path d="M 272.725 146.049 C 275.293 150.242 278.632 153.322 284.541 153.322 C 289.504 153.322 292.674 150.842 292.674 147.415 C 292.674 143.308 289.417 141.853 283.953 139.463 L 280.959 138.179 C 272.315 134.497 266.574 129.883 266.574 120.132 C 266.574 111.148 273.419 104.31 284.116 104.31 C 291.73 104.31 297.205 106.96 301.151 113.9 L 291.824 119.888 C 289.771 116.206 287.556 114.756 284.116 114.756 C 280.607 114.756 278.384 116.981 278.384 119.888 C 278.384 123.483 280.609 124.937 285.748 127.162 L 288.743 128.445 C 298.919 132.809 304.665 137.258 304.665 147.261 C 304.665 158.045 296.194 163.953 284.817 163.953 C 273.694 163.953 266.507 158.652 262.991 151.704 L 272.725 146.049 Z M 230.414 147.086 C 232.294 150.426 234.007 153.248 238.122 153.248 C 242.057 153.248 244.539 151.708 244.539 145.721 L 244.539 104.993 L 256.516 104.993 L 256.516 145.883 C 256.516 158.286 249.246 163.93 238.631 163.93 C 229.041 163.93 223.487 158.967 220.663 152.99 L 230.414 147.086 Z" style=""/>
</svg>