<?xml version="1.0" encoding="utf-8"?>
<svg width="1000" height="500" xmlns="http://www.w3.org/2000/svg" xmlns:bx="https://boxy-svg.com">
  <defs>
    <marker id="marker-0" viewBox="0 0 100 100" overflow="visible" orient="auto" refX="50" refY="50" bx:pinned="true"/>
    <bx:export>
      <bx:file format="png" path="title.png"/>
    </bx:export>
  </defs>
  <path fill="#fff" d="M 0.847 0 L 1000.85 0 L 1000.85 500 L 0.847 500 L 0.847 0 Z"/>
  <g transform="matrix(1.12929, 0, 0, 1.12929, -50.1912, -47.3132)" style="">
    <g transform="matrix(0.433496, 0, 0, 0.433496, 546.935, 115.341)" style="">
      <g transform="matrix(1.16747, 0, 0, 1.16747, 34.0841, 55.9798)">
        <g id="standard_product_icon">
          <rect id="bounding" class="cls-1" width="512" height="512" style="fill: none;"/>
          <g id="art">
            <path class="cls-4" d="M144.4,272c-6.4,0-12.4-3.8-14.9-10.1L55.4,75.9c-3.3-8.2.7-17.5,8.9-20.8,8.2-3.3,17.5.7,20.8,8.9l74.2,186c3.3,8.2-.7,17.5-8.9,20.8-1.9.8-3.9,1.1-5.9,1.1h0Z" style="fill: rgb(251, 188, 4);"/>
            <g id="b">
              <path class="cls-5" d="M256,272c-6.4,0-12.4-3.8-14.9-10.1l-74.1-186c-2.6-6.6-.6-14.1,5-18.5,5.6-4.4,13.4-4.5,19.2-.4l260.1,186c7.2,5.1,8.9,15.1,3.7,22.3s-15.1,8.9-22.3,3.7L216.9,114.7l54,135.3c3.3,8.2-.7,17.5-8.9,20.8-1.9.8-4,1.1-5.9,1.1h0Z" style="fill: rgb(234, 67, 53);"/>
            </g>
            <path class="cls-3" d="M127.2,256l-72,180c-3.3,8.2.7,17.5,8.9,20.8s4,1.1,5.9,1.1c6.3,0,12.4-3.8,14.9-10.1l74.4-186c.8-2,1.1-4,1.1-5.9h-33.2Z" style="fill: rgb(52, 168, 83);"/>
            <path class="cls-2" d="M414.5,256l-197.7,141.2,54.1-135.3c.8-2,1.1-4,1.1-5.9h-33.2l-72,180c-2.6,6.6-.6,14.1,5,18.5,2.9,2.3,6.4,3.4,9.9,3.4s6.5-1,9.3-3l260.4-186c4.4-3.1,6.7-8,6.7-13h-43.5Z" style="fill: rgb(66, 133, 244);"/>
          </g>
        </g>
      </g>
    </g>
    <g transform="matrix(1.11936, 0, 0, 1.11936, 3.52983, -32.5863)" style="">
      <path fill="#fff" d="M 162.133 189.092 L 272.372 189.092 L 299.767 216.487 L 299.767 350.065 L 162.133 350.065 L 162.133 189.092 Z" style="stroke: rgb(0, 0, 0); stroke-width: 10px;">
        <title>Paper</title>
      </path>
      <path d="M 95.029 66.774 L 122.422 94.167 L 95.029 94.167 L 95.029 66.774 Z" style="stroke: rgb(0, 0, 0); stroke-linejoin: bevel; fill: rgb(255, 255, 255); stroke-width: 10px;" transform="matrix(0.999999997036, 0.0000769999, -0.000078, 0.999999996959, 177.35, 122.31)" bx:shape="triangle 95.029 66.774 27.393 27.393 0 0 1@f76ac13b">
        <title>Corner</title>
      </path>
    </g>
    <path d="M -304.479 -274.62 L -284.819 -240.567 L -324.14 -240.567 L -304.479 -274.62 Z" style="transform-box: fill-box; transform-origin: 50% 50%;" transform="matrix(0, 1, -1, 0, 780.33699, 526.765998)" bx:shape="triangle -324.14 -274.62 39.321 34.053 0.5 0 1@56b708cd">
      <title>Arrow</title>
    </path>
  </g>
  <g transform="matrix(0.856552, 0, 0, 0.856552, 131.406752, 136.5081)" style=""/>
  <rect width="174.069" height="174.069" fill="#f7df1e" x="393.305" style="" y="36.441"/>
  <path d="M 510.235 172.434 C 513.741 178.159 518.303 182.367 526.371 182.367 C 533.149 182.367 537.479 178.98 537.479 174.299 C 537.479 168.691 533.03 166.704 525.57 163.44 L 521.48 161.686 C 509.677 156.657 501.836 150.358 501.836 137.04 C 501.836 124.772 511.183 115.433 525.791 115.433 C 536.191 115.433 543.668 119.053 549.055 128.53 L 536.318 136.709 C 533.513 131.68 530.488 129.699 525.791 129.699 C 521 129.699 517.963 132.738 517.963 136.709 C 517.963 141.615 521.002 143.602 528.021 146.642 L 532.11 148.393 C 546.008 154.353 553.855 160.429 553.855 174.089 C 553.855 188.816 542.286 196.884 526.749 196.884 C 511.559 196.884 501.745 189.645 496.943 180.157 L 510.235 172.434 Z M 452.453 173.852 C 455.022 178.411 457.36 182.265 462.98 182.265 C 468.353 182.265 471.744 180.163 471.744 171.987 L 471.744 116.367 L 488.101 116.367 L 488.101 172.208 C 488.101 189.144 478.171 196.853 463.676 196.853 C 450.58 196.853 442.995 190.076 439.138 181.913 L 452.453 173.852 Z" style=""/>
</svg>