<?xml version="1.0" encoding="utf-8"?>
<svg width="1000" height="500" xmlns="http://www.w3.org/2000/svg" xmlns:bx="https://boxy-svg.com">
  <defs/>
  <path fill="#fff" d="M0 0h1000v500H0z"/>
  <text style="font-family: Arial, sans-serif; font-size: 45px; font-weight: 700; white-space: pre; text-anchor: middle;" transform="matrix(0.89706, 0, 0, 0.89706, 243.400463, 124.263479)"><tspan x="520.881" y="136.311" style="font-size: 80px;">Audio to Video</tspan><tspan x="520.8809814453125" dy="1em">​</tspan><tspan x="520.8809814453125" dy="1em">​</tspan><tspan>Client-side converter</tspan></text>
  <path fill="#fff" d="M 97.237 74.728 L 332.217 74.728 L 390.612 133.122 L 390.612 417.852 L 97.237 417.852 L 97.237 74.728 Z" style="stroke: rgb(0, 0, 0); stroke-width: 20px;">
    <title>Paper</title>
  </path>
  <path d="M 202.561 142.331 L 260.95 200.72 L 202.561 200.72 L 202.561 142.331 Z" style="stroke: rgb(0, 0, 0); stroke-width: 20px; stroke-linejoin: bevel; fill: rgb(255, 255, 255);" transform="matrix(0.999999997035, 0.000077000033, -0.000078000012, 0.999999996958, 129.674131473884, -67.617987633798)" bx:shape="triangle 202.561 142.331 58.389 58.389 0 0 1@27e9f0b0">
    <title>Corner</title>
  </path>
  <path d="M -238.823 -277.985 L -217.374 -240.834 L -260.272 -240.834 L -238.823 -277.985 Z" style="" transform="matrix(-1, 0, 0, -1, 0, 0)" bx:shape="triangle -260.272 -277.985 42.898 37.151 0.5 0 1@ebfbd149">
    <title>Arrow</title>
  </path>
  <g transform="matrix(7.133977, 0, 0, 7.133977, 155.351835, 249.712902)" style="">
    <defs/>
    <path d="M17 10.5V7c0-.55-.45-1-1-1H4c-.55 0-1 .45-1 1v10c0 .55.45 1 1 1h12c.55 0 1-.45 1-1v-3.5l4 4v-11l-4 4z" style="fill: rgb(0, 167, 76);"/>
  </g>
  <g transform="matrix(6.633383, 0, 0, 6.633383, 156.85362, 81.059531)" style="">
    <defs/>
    <g/>
    <g>
      <path d="M12,3c-4.97,0-9,4.03-9,9v7c0,1.1,0.9,2,2,2h4v-8H5v-1c0-3.87,3.13-7,7-7s7,3.13,7,7v1h-4v8h4c1.1,0,2-0.9,2-2v-7 C21,7.03,16.97,3,12,3z" style="fill: rgb(74, 74, 74);"/>
    </g>
  </g>
</svg>