<?xml version="1.0" encoding="UTF-8" standalone="no"?>
<svg
   xmlns:dc="http://purl.org/dc/elements/1.1/"
   xmlns:cc="http://creativecommons.org/ns#"
   xmlns:rdf="http://www.w3.org/1999/02/22-rdf-syntax-ns#"
   xmlns:svg="http://www.w3.org/2000/svg"
   xmlns="http://www.w3.org/2000/svg"
   viewBox="0 0 1500.16 1000"
   height="1000"
   width="1500.16"
   xml:space="preserve"
   id="svg2"
   version="1.1"><metadata
     id="metadata8"><rdf:RDF><cc:Work
         rdf:about=""><dc:format>image/svg+xml</dc:format><dc:type
           rdf:resource="http://purl.org/dc/dcmitype/StillImage" /></cc:Work></rdf:RDF></metadata><defs
     id="defs6"><clipPath
       id="clipPath18"
       clipPathUnits="userSpaceOnUse"><path
         style="clip-rule:evenodd"
         id="path16"
         d="M 0,0 H 4687.5 V 3125 H 0 Z" /></clipPath><clipPath
       id="clipPath30"
       clipPathUnits="userSpaceOnUse"><path
         style="clip-rule:evenodd"
         id="path28"
         d="m 2043.75,84.375 h 600 v 300 h -600 z" /></clipPath><clipPath
       id="clipPath74"
       clipPathUnits="userSpaceOnUse"><path
         style="clip-rule:evenodd"
         id="path72"
         d="M 0,0 H 4687.5 V 3125 H 0 Z" /></clipPath><clipPath
       id="clipPath110"
       clipPathUnits="userSpaceOnUse"><path
         id="path108"
         d="M 0,0 H 4687.5 V 3125 H 0 Z" /></clipPath><clipPath
       id="clipPath116"
       clipPathUnits="userSpaceOnUse"><path
         style="clip-rule:evenodd"
         id="path114"
         d="M 4687.5,0 H 0 V 3125 H 4687.5 Z M 2475.1904,884.375 h -14.3945 v 11.25 h 14.3945 z" /></clipPath><clipPath
       id="clipPath128"
       clipPathUnits="userSpaceOnUse"><path
         style="clip-rule:evenodd"
         id="path126"
         d="M 0,0 H 4687.5 V 3125 H 0 Z" /></clipPath><clipPath
       id="clipPath150"
       clipPathUnits="userSpaceOnUse"><path
         style="clip-rule:evenodd"
         id="path148"
         d="M 415.625,1140.625 H 537.5 V 1262.5 H 415.625 Z" /></clipPath><clipPath
       id="clipPath174"
       clipPathUnits="userSpaceOnUse"><path
         style="clip-rule:evenodd"
         id="path172"
         d="M 0,0 H 4687.5 V 3125 H 0 Z" /></clipPath><clipPath
       id="clipPath204"
       clipPathUnits="userSpaceOnUse"><path
         style="clip-rule:evenodd"
         id="path202"
         d="m 415.625,2718.75 h 493.75 v 68.75 h -493.75 z" /></clipPath><clipPath
       id="clipPath218"
       clipPathUnits="userSpaceOnUse"><path
         style="clip-rule:evenodd"
         id="path216"
         d="M 0,0 H 4687.5 V 3125 H 0 Z" /></clipPath><clipPath
       id="clipPath232"
       clipPathUnits="userSpaceOnUse"><path
         style="clip-rule:evenodd"
         id="path230"
         d="m 415.625,2950 h 493.75 v 68.75 h -493.75 z" /></clipPath><clipPath
       id="clipPath246"
       clipPathUnits="userSpaceOnUse"><path
         style="clip-rule:evenodd"
         id="path244"
         d="M 2521.875,1140.625 H 2643.75 V 1262.5 h -121.875 z" /></clipPath><clipPath
       id="clipPath264"
       clipPathUnits="userSpaceOnUse"><path
         style="clip-rule:evenodd"
         id="path262"
         d="M 0,0 H 4687.5 V 3125 H 0 Z" /></clipPath><clipPath
       id="clipPath302"
       clipPathUnits="userSpaceOnUse"><path
         style="clip-rule:evenodd"
         id="path300"
         d="m 415.625,1521.875 h 1768.75 v 1018.75 H 415.625 Z" /></clipPath><clipPath
       id="clipPath316"
       clipPathUnits="userSpaceOnUse"><path
         style="clip-rule:evenodd"
         id="path314"
         d="M 0,0 H 4687.5 V 3125 H 0 Z" /></clipPath><clipPath
       id="clipPath386"
       clipPathUnits="userSpaceOnUse"><path
         style="clip-rule:evenodd"
         id="path384"
         d="m 2521.875,1521.875 h 1768.75 v 1018.75 h -1768.75 z" /></clipPath><clipPath
       id="clipPath400"
       clipPathUnits="userSpaceOnUse"><path
         style="clip-rule:evenodd"
         id="path398"
         d="M 2525,1525 H 4287.5 V 2537.5 H 2525 Z" /></clipPath><clipPath
       id="clipPath490"
       clipPathUnits="userSpaceOnUse"><path
         style="clip-rule:evenodd"
         id="path488"
         d="M 0,0 H 4687.5 V 3125 H 0 Z" /></clipPath><clipPath
       id="clipPath502"
       clipPathUnits="userSpaceOnUse"><path
         id="path500"
         d="M 0,0 H 1125 V 750 H 0 Z" /></clipPath><linearGradient
       id="linearGradient508"
       spreadMethod="pad"
       gradientTransform="matrix(0.75,0,0,-0.75,1024.5,86.25)"
       gradientUnits="userSpaceOnUse"
       y2="22"
       x2="0"
       y1="0"
       x1="0"><stop
         id="stop504"
         offset="0"
         style="stop-opacity:0.14898909;stop-color:#ffffff" /><stop
         id="stop506"
         offset="1"
         style="stop-opacity:0.14898909;stop-color:#ffffff" /></linearGradient><linearGradient
       id="linearGradient514"
       spreadMethod="pad"
       gradientTransform="matrix(0.75,0,0,-0.75,1024.5,86.25)"
       gradientUnits="userSpaceOnUse"
       y2="22"
       x2="0"
       y1="0"
       x1="0"><stop
         id="stop510"
         offset="0"
         style="stop-opacity:1;stop-color:#000000" /><stop
         id="stop512"
         offset="1"
         style="stop-opacity:1;stop-color:#000000" /></linearGradient><pattern
       id="pattern531"
       height="750"
       width="1125"
       y="0"
       x="0"
       patternUnits="userSpaceOnUse"
       patternTransform="matrix(0.32,0,0,0.32,-807,-487)"><defs
         id="defs523"><mask
           id="_mask0"
           height="1"
           width="1"
           y="0"
           x="0"
           maskUnits="userSpaceOnUse"><g
             id="g520"><g
               id="g518"
               clip-path="url(#clipPath502)"><path
                 id="path516"
                 style="fill:url(#linearGradient508);fill-opacity:1;fill-rule:evenodd;stroke:none"
                 d="m 0,0 1125,0 0,750 L 0,750 0,0 Z" /></g></g></mask></defs><g
         id="g525" /><g
         id="g529"
         mask="url(#_mask0)"><path
           id="path527"
           style="fill:url(#linearGradient514);fill-opacity:1;fill-rule:evenodd;stroke:none"
           d="m 0,0 1125,0 0,750 L 0,750 0,0 Z" /></g></pattern><clipPath
       id="clipPath537"
       clipPathUnits="userSpaceOnUse"><path
         id="path535"
         d="M 0,0 H 1125 V 750 H 0 Z" /></clipPath><linearGradient
       id="linearGradient543"
       spreadMethod="pad"
       gradientTransform="matrix(0.75,0,0,-0.75,605.25,86.25)"
       gradientUnits="userSpaceOnUse"
       y2="22"
       x2="0"
       y1="0"
       x1="0"><stop
         id="stop539"
         offset="0"
         style="stop-opacity:0.14898909;stop-color:#ffffff" /><stop
         id="stop541"
         offset="1"
         style="stop-opacity:0.14898909;stop-color:#ffffff" /></linearGradient><linearGradient
       id="linearGradient549"
       spreadMethod="pad"
       gradientTransform="matrix(0.75,0,0,-0.75,605.25,86.25)"
       gradientUnits="userSpaceOnUse"
       y2="22"
       x2="0"
       y1="0"
       x1="0"><stop
         id="stop545"
         offset="0"
         style="stop-opacity:1;stop-color:#000000" /><stop
         id="stop547"
         offset="1"
         style="stop-opacity:1;stop-color:#000000" /></linearGradient><pattern
       id="pattern566"
       height="750"
       width="1125"
       y="0"
       x="0"
       patternUnits="userSpaceOnUse"
       patternTransform="matrix(0.32,0,0,0.32,-807,-487)"><defs
         id="defs558"><mask
           id="_mask1"
           height="1"
           width="1"
           y="0"
           x="0"
           maskUnits="userSpaceOnUse"><g
             id="g555"><g
               id="g553"
               clip-path="url(#clipPath537)"><path
                 id="path551"
                 style="fill:url(#linearGradient543);fill-opacity:1;fill-rule:evenodd;stroke:none"
                 d="m 0,0 1125,0 0,750 L 0,750 0,0 Z" /></g></g></mask></defs><g
         id="g560" /><g
         id="g564"
         mask="url(#_mask1)"><path
           id="path562"
           style="fill:url(#linearGradient549);fill-opacity:1;fill-rule:evenodd;stroke:none"
           d="m 0,0 1125,0 0,750 L 0,750 0,0 Z" /></g></pattern><clipPath
       id="clipPath576"
       clipPathUnits="userSpaceOnUse"><path
         style="clip-rule:evenodd"
         id="path574"
         d="m 2521.875,2765.625 h 1750 v 68.75 h -1750 z" /></clipPath></defs><g
     transform="matrix(0.31999998,0,0,0.31999998,0,2.5e-5)"
     id="g10"><g
       id="g12"><g
         clip-path="url(#clipPath18)"
         id="g14"><g
           transform="scale(3.125)"
           id="g20"><path
             id="path22"
             style="fill:#ffffff;fill-opacity:1;fill-rule:nonzero;stroke:none"
             d="M 0,0 H 1500 V 1041 H 0 Z" /></g></g></g><g
       id="g24"><g
         clip-path="url(#clipPath30)"
         id="g26"><g
           transform="matrix(1.1803374,0,0,1.1803374,2029.9194,18.990799)"
           id="g32"><path
             id="path34"
             style="fill:#4285f4;fill-opacity:1;fill-rule:nonzero;stroke:none"
             d="M 444.00934,176.58681 417.70935,130.8468 c -1.00622,-1.78441 -2.38904,-3.20124 -4.14847,-4.25049 -1.75946,-1.04924 -3.6633,-1.59241 -5.71151,-1.62951 l -52.60999,10e-6 c -2.0506,0.0333 -3.95685,0.57481 -5.71875,1.62445 -1.7619,1.04964 -3.14566,2.46816 -4.15125,4.25554 l -26.29998,45.62 c -1.01987,1.76851 -1.52979,3.6735 -1.52979,5.71501 0,2.04149 0.50992,3.94647 1.52979,5.71498 l 26.29998,46 c 0.99588,1.80907 2.37232,3.25618 4.12928,4.34137 1.75699,1.08517 3.6672,1.66804 5.73071,1.74863 h 52.60999 c 2.06338,-0.0719 3.97479,-0.64794 5.73422,-1.72821 1.75949,-1.08028 3.13806,-2.52422 4.13571,-4.33182 l 26.30005,-45.74997 c 1.02395,-1.79596 1.53592,-3.72762 1.53592,-5.79498 0,-2.06737 -0.51197,-3.99904 -1.53592,-5.79502 z" /><path
             id="path36"
             style="fill:#000000;fill-opacity:0.0667;fill-rule:nonzero;stroke:none"
             d="m 415.12936,182.46681 -36.91,-21.75999 2.91,13.75999 -13.82998,-13.88 2.70001,20.88 -11.75,29 29.53,29.5 h 20.06 c 2.06338,-0.0718 3.97482,-0.64787 5.73431,-1.72815 1.75946,-1.08029 3.138,-2.52424 4.13565,-4.33185 l 17.84003,-31 z" /><path
             id="path38"
             style="fill:#ffffff;fill-opacity:1;fill-rule:nonzero;stroke:none"
             d="m 358.24936,210.43681 9.04999,-6.09001 6.78,-21.87999 -6.78,-21.88 -9.04999,-6.09 8.67001,27.97 z" /><path
             id="path40"
             style="fill:#ffffff;fill-opacity:1;fill-rule:nonzero;stroke:none"
             d="m 373.58936,154.46681 8.67001,28 -8.67001,28 41.54,-28 z m 11.61999,24 -4.44,-14.31 21.26001,14.31 z" /></g><g
           transform="matrix(1.1803374,0,0,1.1803374,2029.9194,16.815208)"
           id="g42"><path
             id="path44"
             style="fill:#4285f4;fill-opacity:1;fill-rule:nonzero;stroke:none"
             d="m 212.68549,178.425 -26.30001,-45.74 c -1.00621,-1.7844 -2.38904,-3.20122 -4.14848,-4.25046 -1.75945,-1.04925 -3.66328,-1.59242 -5.71152,-1.62953 l -52.61,-10e-6 c -2.0485,0.0361 -3.9526,0.57883 -5.71228,1.62821 -1.75968,1.04939 -3.14226,2.46665 -4.14772,4.25179 l -26.309997,45.61999 c -1.017677,1.77088 -1.526512,3.67754 -1.526512,5.72 0,2.04247 0.508835,3.94913 1.526512,5.72001 l 26.299997,46 c 0.99516,1.80976 2.37134,3.25732 4.12852,4.34265 1.75719,1.08531 3.66768,1.66775 5.73148,1.74736 l 52.60999,-2e-5 c 2.06371,-0.0708 3.97541,-0.64644 5.73509,-1.72687 1.75969,-1.08041 3.13801,-2.52479 4.13491,-4.33313 l 26.3,-45.74 c 1.02475,-1.79933 1.53713,-3.73435 1.53713,-5.80501 0,-2.07066 -0.51238,-4.00566 -1.53713,-5.80499 z" /><path
             id="path46"
             style="fill:#000000;fill-opacity:0.0667;fill-rule:nonzero;stroke:none"
             d="m 187.48549,182.30501 -0.69,-0.21001 -34.90001,-34.91 -7.16001,10.47 6,6 -15.27,5.56 -6,15.17999 -5.86,-5.86 -10.51,9.28 53.99999,54 h 9.42 c 2.06369,-0.0709 3.97538,-0.64647 5.73507,-1.72689 1.75969,-1.08042 3.138,-2.52479 4.13492,-4.33311 l 19.91001,-34.65001 z" /><path
             id="path48"
             style="fill:#ffffff;fill-opacity:1;fill-rule:nonzero;stroke:none"
             d="m 150.21548,161.30501 c -1.5102,0 -3.0059,0.14731 -4.48709,0.44194 -1.48118,0.29461 -2.91938,0.73088 -4.31463,1.30881 -1.39525,0.57792 -2.72071,1.2864 -3.9764,2.12542 -1.25569,0.83904 -2.41746,1.79248 -3.48533,2.86035 -1.06789,1.06788 -2.02134,2.22966 -2.86036,3.48536 -0.83903,1.25569 -1.5475,2.58116 -2.12542,3.97641 -0.57793,1.39523 -1.0142,2.83345 -1.30882,4.31463 -0.29463,1.48119 -0.44194,2.97689 -0.44194,4.48709 0,1.5102 0.14731,3.00589 0.44194,4.48708 0.29462,1.48115 0.73089,2.91937 1.30882,4.31462 0.57792,1.39525 1.2864,2.7207 2.12544,3.97639 0.83902,1.2557 1.79246,2.41749 2.86035,3.48536 1.06786,1.06787 2.22963,2.02131 3.48532,2.86033 1.25569,0.83902 2.58116,1.5475 3.97641,2.12543 1.39525,0.57793 2.83348,1.01421 4.31467,1.30885 1.48117,0.29462 2.97685,0.44193 4.48706,0.44194 1.51019,-1e-5 3.00587,-0.14732 4.48706,-0.44194 1.48119,-0.29464 2.91939,-0.73092 4.31464,-1.30885 1.39525,-0.57793 2.7207,-1.28641 3.97639,-2.12543 1.25569,-0.83902 2.41747,-1.79246 3.48535,-2.86033 1.06787,-1.06787 2.02132,-2.22966 2.86034,-3.48536 0.83902,-1.25569 1.5475,-2.58114 2.12543,-3.97639 0.57792,-1.39525 1.0142,-2.83347 1.30883,-4.31462 0.29464,-1.48119 0.44194,-2.97688 0.44196,-4.48708 0,-1.5102 -0.14731,-3.0059 -0.44194,-4.48709 -0.29463,-1.48117 -0.7309,-2.91937 -1.30882,-4.31462 -0.57793,-1.39525 -1.2864,-2.7207 -2.12542,-3.97639 -0.83903,-1.2557 -1.79248,-2.41747 -2.86033,-3.48534 -1.06789,-1.06787 -2.22968,-2.02132 -3.48537,-2.86035 -1.25569,-0.83902 -2.58114,-1.5475 -3.97639,-2.12543 -1.39525,-0.57794 -2.83345,-1.01422 -4.31464,-1.30885 -1.48119,-0.29462 -2.97688,-0.44193 -4.48709,-0.44193 m -2e-5,40.52999 c -1.14799,6.5e-4 -2.28501,-0.11063 -3.41108,-0.33388 -1.12609,-0.22324 -2.21958,-0.55414 -3.28051,-0.99272 -1.06091,-0.43856 -2.06887,-0.97635 -3.02389,-1.61339 -0.95502,-0.63704 -1.83875,-1.3611 -2.6512,-2.17217 -0.81245,-0.81105 -1.53801,-1.69352 -2.17668,-2.64746 -0.63866,-0.95391 -1.17819,-1.96096 -1.61858,-3.02113 -0.44037,-1.06017 -0.77313,-2.15308 -0.99829,-3.27875 -0.22517,-1.1257 -0.33841,-2.26256 -0.33972,-3.41055 -0.001,-1.148 0.10933,-2.28508 0.33192,-3.41129 0.2226,-1.12619 0.55288,-2.21987 0.99082,-3.28106 0.43796,-1.06116 0.97519,-2.06943 1.61168,-3.02481 0.63649,-0.95537 1.36003,-1.83951 2.17062,-2.65242 0.81059,-0.81292 1.69267,-1.53897 2.64624,-2.17818 0.95357,-0.63924 1.9603,-1.17934 3.02021,-1.62032 1.05992,-0.44098 2.15264,-0.77436 3.27821,-1.00018 1.12556,-0.22581 2.26233,-0.33971 3.41032,-0.34167 1.148,-0.002 2.28514,0.10803 3.41147,0.32998 1.12633,0.22194 2.2202,0.55158 3.2816,0.98891 1.06142,0.43736 2.07001,0.97401 3.02576,1.60995 0.95575,0.63595 1.84031,1.35898 2.65368,2.1691 0.81338,0.81014 1.53995,1.69179 2.17971,2.64498 0.63975,0.9532 1.18043,1.95962 1.62202,3.01927 0.44159,1.05968 0.77562,2.15222 1.00208,3.27765 0.22645,1.12544 0.34099,2.26214 0.34361,3.41012 6.6e-4,1.14818 -0.11075,2.28537 -0.33418,3.41161 -0.22342,1.1262 -0.5546,2.2198 -0.99353,3.28076 -0.43894,1.06096 -0.97718,2.06889 -1.6147,3.02379 -0.63756,0.95491 -1.36217,1.83841 -2.17382,2.65053 -0.81164,0.81212 -1.69473,1.53723 -2.64927,2.17532 -0.95455,0.63809 -1.96218,1.17691 -3.02289,1.61646 -1.06072,0.43954 -2.15412,0.77136 -3.2802,0.99545 -1.1261,0.22407 -2.26323,0.3361 -3.41141,0.3361" /><path
             id="path50"
             style="fill:#ffffff;fill-opacity:1;fill-rule:nonzero;stroke:none"
             d="m 186.35548,181.57501 -9.61,-3 c 0.41056,1.88794 0.61722,3.79795 0.62,5.73 -2.9e-4,1.35739 -0.1003,2.7074 -0.29999,4.05002 l 9.29999,-2e-5 c 0.39351,-0.0606 0.72432,-0.23801 0.9924,-0.53235 0.2681,-0.29434 0.41397,-0.64023 0.43761,-1.03767 l -2e-5,-3.62999 c -0.0236,-0.39745 -0.16949,-0.74333 -0.43759,-1.03769 -0.26808,-0.29434 -0.59889,-0.47179 -0.99242,-0.53233" /><path
             id="path52"
             style="fill:#ffffff;fill-opacity:1;fill-rule:nonzero;stroke:none"
             d="m 150.21548,157.15501 c 1.8971,0.002 3.77376,0.19835 5.62999,0.58998 l -3.44998,-9.56997 c -0.061,-0.39527 -0.2397,-0.72708 -0.53621,-0.99544 -0.29651,-0.26836 -0.64444,-0.41322 -1.04379,-0.43457 l -1.44,2e-5 c -0.40015,0.0194 -0.74874,0.16358 -1.04576,0.43243 -0.29702,0.26881 -0.4751,0.60135 -0.53424,0.99757 l -3,9.52999 c 1.78135,-0.36 3.58102,-0.54001 5.39901,-0.54001" /><path
             id="path54"
             style="fill:#ffffff;fill-opacity:1;fill-rule:nonzero;stroke:none"
             d="m 123.06549,184.30501 c -0.002,-1.93843 0.20141,-3.8551 0.61,-5.75 l -9.61,3 c -0.39524,0.061 -0.72705,0.2397 -0.99542,0.53622 -0.26837,0.2965 -0.41323,0.64443 -0.4346,1.04376 l 2e-5,3.63002 c 0.0236,0.39744 0.1695,0.74332 0.43758,1.03766 0.26811,0.29436 0.59891,0.47181 0.99242,0.53235 h 9.3 c -0.20113,-1.34253 -0.30113,-2.69253 -0.29998,-4.05003" /><path
             id="path56"
             style="fill:#ffffff;fill-opacity:1;fill-rule:nonzero;stroke:none"
             d="m 158.4455,176.785 -2.23,2.18 c -0.79321,-0.69674 -1.68683,-1.22298 -2.68085,-1.57872 -0.99402,-0.35573 -2.01861,-0.51598 -3.07379,-0.48073 -1.05516,0.0353 -2.06677,0.26353 -3.03484,0.68481 -0.96806,0.42128 -1.82455,1.006 -2.5695,1.75412 -0.74493,0.74814 -1.32597,1.60713 -1.74313,2.57698 -0.41715,0.96984 -0.6411,1.98242 -0.67185,3.03774 -0.0307,1.05531 0.13387,2.07922 0.49384,3.07171 0.35997,0.99251 0.89,1.88387 1.59012,2.67409 l -2.18,2.17999 c 1.0672,1.06885 2.29837,1.89269 3.6935,2.47153 1.39511,0.57881 2.84789,0.86852 4.35832,0.86911 1.51042,5.8e-4 2.96343,-0.28801 4.359,-0.86575 1.39557,-0.57776 2.62736,-1.40065 3.6954,-2.46868 1.06802,-1.06803 1.89092,-2.29983 2.46868,-3.69541 0.57774,-1.39556 0.86631,-2.84856 0.86573,-4.35898 -5.9e-4,-1.51044 -0.29028,-2.96321 -0.86909,-4.35834 -0.57883,-1.39513 -1.40267,-2.62628 -2.47153,-3.6935 m -4.5,11.25002 c -0.49483,0.49577 -1.06569,0.87794 -1.71262,1.1465 -0.64694,0.26857 -1.32064,0.40307 -2.02111,0.40349 -0.70046,4.4e-4 -1.37432,-0.13321 -2.02156,-0.40096 -0.64728,-0.26774 -1.21865,-0.64918 -1.7141,-1.14433 -0.49545,-0.49513 -0.87726,-1.06626 -1.1454,-1.71335 -0.26816,-0.64711 -0.40224,-1.32089 -0.40225,-2.02135 1e-5,-0.70045 0.13409,-1.37423 0.40225,-2.02131 0.26814,-0.64711 0.64995,-1.21824 1.1454,-1.71338 0.49545,-0.49515 1.06682,-0.8766 1.7141,-1.14435 0.64724,-0.26775 1.3211,-0.4014 2.02156,-0.40096 0.70047,4.5e-4 1.37417,0.13495 2.0211,0.40351 0.64693,0.26857 1.21782,0.65072 1.71265,1.14648 0.49897,0.49233 0.88365,1.06185 1.15405,1.70853 0.27041,0.6467 0.40562,1.32052 0.40562,2.02148 -1e-5,0.70096 -0.13522,1.37479 -0.40564,2.02147 -0.2704,0.6467 -0.65509,1.2162 -1.15405,1.70853" /></g><g
           transform="matrix(0.46875003,0,0,0.46875003,2043.75,84.375)"
           id="g58"><path
             id="path60"
             style="fill:none;stroke:#000000;stroke-width:1;stroke-linecap:butt;stroke-linejoin:miter;stroke-miterlimit:10;stroke-dasharray:none;stroke-opacity:1"
             d="M 543.8609,320 H 713.26752" /></g><g
           transform="matrix(-2.1755981,0,0,-2.1755981,2356.3384,234.37502)"
           id="g62"><path
             id="path64"
             style="fill:#000000;fill-opacity:1;fill-rule:evenodd;stroke:none"
             d="M 0,0 5,-5 -12.5,0 5,5 Z" /><path
             id="path66"
             style="fill:none;stroke:#000000;stroke-width:1;stroke-linecap:butt;stroke-linejoin:miter;stroke-miterlimit:10;stroke-dasharray:none;stroke-opacity:1"
             d="M 0,0 5,-5 -12.5,0 5,5 Z" /></g></g></g><g
       id="g68"><g
         clip-path="url(#clipPath74)"
         id="g70"><g
           transform="scale(3.125)"
           id="g76"><text
             id="text80"
             style="font-variant:normal;font-weight:bold;font-size:40px;font-family:Arial;-inkscape-font-specification:Arial-BoldMT;writing-mode:lr-tb;fill:#000000;fill-opacity:1;fill-rule:nonzero;stroke:none"
             transform="translate(510.5,165)"><tspan
               id="tspan78"
               y="0"
               x="0 29 53 77 88 115 139 163 174 198 220 231 244 268 279 308 319 343 367 391 402 431 455">App Engine to Cloud Run</tspan></text>
<text
             id="text84"
             style="font-variant:normal;font-weight:normal;font-size:16px;font-family:Arial;-inkscape-font-specification:ArialMT;writing-mode:lr-tb;fill:#000000;fill-opacity:1;fill-rule:nonzero;stroke:none"
             transform="translate(470,223)"><tspan
               id="tspan82"
               y="0"
               x="0 12 21 25 34 43 48 52 56 65 74 78 82 86 95 99 112 116 125 130 139 143 152 156 165 174 178 189 198 207 211 222 231 240 244 253 262 266 274 283 288 296 300 308 317 321 325 334 338 347 351 363 367 376 385 394 398 410 419 428 432 440 449 454 462 466 474 483">Helper tool to migrate an App Engine service to a Cloud Run service.</tspan></text>
<text
             id="text88"
             style="font-variant:normal;font-weight:normal;font-size:16px;font-family:Arial;-inkscape-font-specification:ArialMT;writing-mode:lr-tb;fill:#000000;fill-opacity:1;fill-rule:nonzero;stroke:none"
             transform="translate(470,261)"><tspan
               id="tspan86"
               y="0"
               x="0 12 21 25 34 38 42 50 54 63 72 80 89 94 98 107 116 120 129 138 147 156 165 169 173 184 188 192 196 205 210 219 227 236 244 252 256 265 274 278 282 290 294 303 312 321 330 339 348 352 361 370 374 382 386 390 399 408 412 416 424 428 437 446 450 454 463 467 475 484 493">Data is never uploaded. All processing is happening client side in your</tspan></text>
<text
             id="text92"
             style="font-variant:normal;font-weight:normal;font-size:16px;font-family:Arial;-inkscape-font-specification:ArialMT;writing-mode:lr-tb;fill:#000000;fill-opacity:1;fill-rule:nonzero;stroke:none"
             transform="translate(470,283)"><tspan
               id="tspan90"
               y="0"
               x="0 9 14 23 35 43 52 57 61 65 75 84 88 96 100 104 113 122 126 130 134 142">browser. This tool is </tspan></text>
<path
             id="path94"
             style="fill:#0064c1;fill-opacity:1;fill-rule:nonzero;stroke:none"
             d="m 616,284 h 72 v 1 h -72 z" /><text
             id="text98"
             style="font-variant:normal;font-weight:normal;font-size:16px;font-family:Arial;-inkscape-font-specification:ArialMT;writing-mode:lr-tb;fill:#0064c1;fill-opacity:1;fill-rule:nonzero;stroke:none"
             transform="translate(616,283)"><tspan
               id="tspan96"
               y="0"
               x="0 9 18 22 34 38 42 54 63">on GitHub</tspan></text>
<text
             id="text102"
             style="font-variant:normal;font-weight:normal;font-size:16px;font-family:Arial;-inkscape-font-specification:ArialMT;writing-mode:lr-tb;fill:#000000;fill-opacity:1;fill-rule:nonzero;stroke:none"
             transform="translate(688,283)"><tspan
               id="tspan100"
               y="0"
               x="0 4 8 12 21 30 34 38 42 47 56 65 69 73 82">, feel free to </tspan></text>
</g></g></g><g
       id="g104"><g
         clip-path="url(#clipPath110)"
         id="g106"><g
           clip-path="url(#clipPath116)"
           id="g112"><g
             transform="scale(3.125)"
             id="g118"><path
               id="path120"
               style="fill:#0064c1;fill-opacity:1;fill-rule:nonzero;stroke:none"
               d="m 774,284 h 91 v 1 h -91 z" /></g></g></g></g><g
       id="g122"><g
         clip-path="url(#clipPath128)"
         id="g124"><g
           transform="scale(3.125)"
           id="g130"><text
             id="text134"
             style="font-variant:normal;font-weight:normal;font-size:16px;font-family:Arial;-inkscape-font-specification:ArialMT;writing-mode:lr-tb;fill:#0064c1;fill-opacity:1;fill-rule:nonzero;stroke:none"
             transform="translate(774,283)"><tspan
               id="tspan132"
               y="0"
               x="0 5 14 23 32 37 41 45 49 57 65 74 83">report issues</tspan></text>
<text
             id="text138"
             style="font-variant:normal;font-weight:normal;font-size:16px;font-family:Arial;-inkscape-font-specification:ArialMT;writing-mode:lr-tb;fill:#000000;fill-opacity:1;fill-rule:nonzero;stroke:none"
             transform="translate(865,283)"><tspan
               id="tspan136"
               y="0"
               x="0">.</tspan></text>
<text
             id="text142"
             style="font-variant:normal;font-weight:bold;font-size:16px;font-family:Arial;-inkscape-font-specification:Arial-BoldMT;writing-mode:lr-tb;fill:#000000;fill-opacity:1;fill-rule:nonzero;stroke:none"
             transform="translate(470,320)"><tspan
               id="tspan140"
               y="0"
               x="0 10 20 24 33 37 41 50 54 64 74 79 83 92 102 106 116 121 126 130 139 143 152 156 160 169 173 182 192 202 212 222 228 233 242 252 256 268 278 288 298 302 311 315 325 331 341 351 361 370 375">This is not an officially supported Google product.</tspan></text>
</g></g></g><g
       id="g144"><g
         clip-path="url(#clipPath150)"
         id="g146"><g
           transform="matrix(0.95214844,0,0,0.95214844,415.625,1140.625)"
           id="g152"><path
             id="path154"
             style="fill:#4285f4;fill-opacity:1;fill-rule:nonzero;stroke:none"
             d="M 126.47,58.119999 100.17,12.379997 C 99.16378,10.595595 97.780945,9.178772 96.021492,8.129528 94.262047,7.0802836 92.358215,6.5371079 90.309998,6.500001 L 37.700001,6.5 C 35.651497,6.536097 33.747402,7.0788364 31.987722,8.1282196 30.228043,9.1776018 28.845467,10.594862 27.839998,12.379998 L 1.53,58 c -1.01767257,1.77087 -1.52650857,3.677536 -1.52650831,5.719997 2.5e-7,2.042462 0.50883682,3.949131 1.52650971,5.720005 L 27.83,115.44 c 0.995165,1.80976 2.371338,3.25731 4.128523,4.34263 1.757183,1.08532 3.667675,1.66777 5.731476,1.74736 l 52.610004,1e-5 c 2.063698,-0.0708 3.975395,-0.64646 5.735092,-1.72688 1.759697,-1.08042 3.138001,-2.52479 4.134905,-4.33312 l 26.3,-45.740004 c 1.02474,-1.799332 1.53711,-3.734329 1.53711,-5.805001 0,-2.070671 -0.51237,-4.005668 -1.53711,-5.804996 z" /><path
             id="path156"
             style="fill:#000000;fill-opacity:0.0667;fill-rule:nonzero;stroke:none"
             d="M 101.27,62 100.57999,61.790001 65.68,26.879999 l -7.16,10.469999 6.000004,6 L 49.25,48.91 l -6,15.179996 -5.860001,-5.86 -10.51,9.280006 L 80.879997,121.51 h 9.420006 c 2.06369,-0.0708 3.975388,-0.64647 5.735085,-1.7269 1.759697,-1.08042 3.138,-2.52478 4.134912,-4.3331 l 19.91,-34.649997 z" /><path
             id="path158"
             style="fill:#ffffff;fill-opacity:1;fill-rule:nonzero;stroke:none"
             d="m 64,41 c -1.510204,0 -3.005901,0.147312 -4.487083,0.441936 -1.481186,0.294629 -2.9194,0.730904 -4.314644,1.308831 -1.395245,0.577926 -2.720707,1.286403 -3.976391,2.125427 -1.255688,0.839024 -2.417465,1.792473 -3.48534,2.860348 -1.067875,1.067875 -2.021324,2.229652 -2.860348,3.48534 -0.839024,1.255684 -1.547501,2.581146 -2.125427,3.976391 -0.577931,1.395244 -1.014206,2.833458 -1.308831,4.314644 C 41.147308,60.994099 40.999996,62.489796 41,64 c -4e-6,1.510201 0.147308,3.00589 0.441936,4.487076 0.294625,1.481178 0.7309,2.919395 1.308831,4.314636 0.577926,1.395241 1.286403,2.720703 2.125427,3.976387 0.839024,1.255684 1.792473,2.417465 2.860348,3.485344 1.067875,1.067879 2.229652,2.021324 3.48534,2.860352 1.255684,0.839027 2.581146,1.5475 3.976391,2.125427 1.395244,0.577934 2.833458,1.014213 4.314644,1.308838 C 60.994099,86.852684 62.489796,86.999992 64,87 c 1.510201,-8e-6 3.00589,-0.147324 4.487076,-0.441948 1.481178,-0.294624 2.919395,-0.730896 4.314636,-1.30883 1.395241,-0.577927 2.720703,-1.2864 3.976387,-2.125427 1.255684,-0.839028 2.417465,-1.792473 3.485344,-2.860352 1.067879,-1.067879 2.021324,-2.22966 2.860352,-3.485344 0.839027,-1.255684 1.5475,-2.581146 2.125427,-3.976387 0.577934,-1.395241 1.014213,-2.833458 1.308838,-4.314636 C 86.852684,67.00589 86.999992,65.510201 87,64 c -8e-6,-1.510204 -0.147324,-3.005901 -0.441948,-4.487083 -0.294624,-1.481186 -0.730896,-2.9194 -1.30883,-4.314644 -0.577927,-1.395245 -1.2864,-2.720707 -2.125427,-3.976391 -0.839028,-1.255688 -1.792473,-2.417465 -2.860352,-3.48534 -1.067879,-1.067875 -2.22966,-2.021324 -3.485344,-2.860348 C 75.522415,44.03717 74.196953,43.328693 72.801712,42.750767 71.406471,42.17284 69.968254,41.736565 68.487076,41.441936 67.00589,41.147312 65.510201,41 64,41 m 0,40.529999 c -1.147987,6.48e-4 -2.285019,-0.110642 -3.411091,-0.333878 -1.126072,-0.223236 -2.21957,-0.554138 -3.280487,-0.992706 -1.060913,-0.438561 -2.068878,-0.976357 -3.023895,-1.613388 -0.955017,-0.637047 -1.838749,-1.361092 -2.651196,-2.17215 -0.812442,-0.811058 -1.538002,-1.693542 -2.176674,-2.647468 -0.638671,-0.953926 -1.178196,-1.960976 -1.618572,-3.021141 -0.440372,-1.060166 -0.77314,-2.153092 -0.998306,-3.278786 -0.225166,-1.125679 -0.338406,-2.26252 -0.339722,-3.410507 -0.0013,-1.147984 0.109333,-2.285076 0.331928,-3.411278 0.222596,-1.126202 0.552868,-2.219891 0.990822,-3.281059 0.437954,-1.061165 0.975178,-2.069439 1.611672,-3.024819 0.63649,-0.955379 1.360031,-1.839527 2.17062,-2.652439 0.810589,-0.812908 1.692665,-1.538975 2.646229,-2.178192 0.953559,-0.639217 1.960292,-1.179321 3.020202,-1.620304 1.059914,-0.440979 2.152653,-0.774376 3.278214,-1.000187 1.12556,-0.225807 2.262333,-0.339695 3.41032,-0.341667 1.147983,-0.002 2.285145,0.108028 3.411472,0.329979 1.126328,0.22195 2.2202,0.551597 3.281609,0.988941 1.061424,0.437347 2.070007,0.973995 3.025757,1.609939 0.955742,0.635945 1.840301,1.358979 2.653671,2.169102 0.813377,0.810124 1.539947,1.691784 2.17971,2.644978 0.639763,0.953193 1.180443,1.959617 1.622025,3.019275 0.441589,1.059662 0.775612,2.152207 1.002075,3.277638 0.226448,1.125435 0.340988,2.262142 0.343613,3.410126 6.56e-4,1.14817 -0.110733,2.28537 -0.334168,3.41159 -0.223434,1.126229 -0.554619,2.219818 -0.993545,3.280785 -0.438935,1.060966 -0.977173,2.068893 -1.614723,3.023796 -0.637551,0.954903 -1.362153,1.838409 -2.173806,2.65052 -0.811653,0.812111 -1.69474,1.537224 -2.649269,2.175324 -0.954529,0.638099 -1.96215,1.17691 -3.022865,1.616447 -1.060707,0.439537 -2.154114,0.77134 -3.280213,0.995415 -1.126091,0.224075 -2.263229,0.336113 -3.411399,0.33612" /><path
             id="path160"
             style="fill:#ffffff;fill-opacity:1;fill-rule:nonzero;stroke:none"
             d="m 100.14,61.27 -9.610001,-3 c 0.41056,1.88794 0.617225,3.79794 0.62001,5.73 -3.05e-4,1.357391 -0.100311,2.707397 -0.300011,4.050011 l 9.300002,-8e-6 c 0.89931,-0.138382 1.37598,-0.66172 1.43,-1.570007 v -3.629998 c -0.054,-0.908287 -0.5307,-1.431621 -1.43,-1.569999" /><path
             id="path162"
             style="fill:#ffffff;fill-opacity:1;fill-rule:nonzero;stroke:none"
             d="m 64,36.849998 c 1.897102,0.0017 3.773766,0.198357 5.629997,0.589997 L 66.18,27.869999 C 66.040512,26.96554 65.513847,26.488873 64.599998,26.439997 l -1.439998,2e-6 c -0.917694,0.04462 -1.444359,0.521289 -1.579998,1.43 l -3,9.529999 c 1.781326,-0.360001 3.580993,-0.540001 5.399002,-0.540001" /><path
             id="path164"
             style="fill:#ffffff;fill-opacity:1;fill-rule:nonzero;stroke:none"
             d="m 36.849998,64 c -0.0019,-1.938442 0.201405,-3.85511 0.610009,-5.75 l -9.610009,3 c -0.904462,0.139484 -1.381128,0.666153 -1.43,1.579998 v 3.630001 c 0.05403,0.908287 0.530693,1.431618 1.43,1.569992 l 9.3,8e-6 c -0.201138,-1.342507 -0.30114,-2.692505 -0.3,-4.049999" /><path
             id="path166"
             style="fill:#ffffff;fill-opacity:1;fill-rule:nonzero;stroke:none"
             d="M 72.230003,56.48 70,58.66 c -0.793213,-0.696728 -1.686829,-1.222954 -2.680847,-1.578678 -0.994026,-0.355725 -2.018616,-0.515965 -3.073784,-0.480713 -1.055164,0.03526 -2.066773,0.263531 -3.034832,0.684818 -0.968052,0.421288 -1.824547,1.005993 -2.569485,1.754112 -0.74493,0.748124 -1.325973,1.607106 -1.743122,2.57695 -0.417148,0.969849 -0.641098,1.982422 -0.671856,3.037724 -0.03075,1.055305 0.133854,2.079208 0.49382,3.071701 0.359971,0.992493 0.890007,1.883858 1.590111,2.674088 l -2.180004,2.18 c 1.067318,1.068367 2.298466,1.891754 3.693451,2.470177 1.394985,0.578422 2.847557,0.867813 4.357708,0.868179 1.510147,3.74e-4 2.96286,-0.288315 4.358131,-0.866051 1.395264,-0.577743 2.626809,-1.400535 3.694641,-2.468376 1.067841,-1.067833 1.890633,-2.299377 2.468369,-3.694641 0.577744,-1.395271 0.866432,-2.847984 0.866058,-4.358132 -3.66e-4,-1.510147 -0.289764,-2.962711 -0.868187,-4.357696 -0.578422,-1.394985 -1.401809,-2.626141 -2.470169,-3.693459 m -4.5,11.25 c -0.494827,0.495766 -1.065704,0.877938 -1.712638,1.1465 -0.646935,0.268562 -1.320626,0.403061 -2.021084,0.403496 -0.700459,4.42e-4 -1.374317,-0.133209 -2.021584,-0.400955 C 61.327431,68.61129 60.756069,68.229843 60.260612,67.734695 59.76516,67.239555 59.383358,66.668434 59.115204,66.021339 58.84705,65.374237 58.712971,64.700462 58.712967,64 c 4e-6,-0.700459 0.134079,-1.374233 0.402233,-2.021332 0.268154,-0.647098 0.64996,-1.21822 1.145412,-1.713367 0.495461,-0.49514 1.066826,-0.876587 1.714093,-1.144337 0.647266,-0.267746 1.321125,-0.401398 2.021583,-0.400959 0.700459,4.43e-4 1.37415,0.134945 2.021084,0.403511 0.646927,0.268562 1.217804,0.650726 1.712631,1.146488 0.498955,0.492314 0.883644,1.061817 1.154061,1.708515 0.270416,0.646702 0.405624,1.32053 0.405624,2.021489 0,0.70095 -0.135208,1.374778 -0.405624,2.021476 -0.270417,0.646691 -0.655106,1.216202 -1.154061,1.708519" /></g></g></g><g
       id="g168"><g
         clip-path="url(#clipPath174)"
         id="g170"><g
           transform="scale(3.125)"
           id="g176"><text
             id="text180"
             style="font-variant:normal;font-weight:bold;font-size:28px;font-family:Arial;-inkscape-font-specification:Arial-BoldMT;writing-mode:lr-tb;fill:#000000;fill-opacity:1;fill-rule:nonzero;stroke:none"
             transform="translate(181.0625,394)"><tspan
               id="tspan178"
               y="0"
               x="0 17 34 51 62 70 90 107 124 132 151 168 185 193 210 226 234 250 266 277 293 301 317">Your App Engine service</tspan></text>
<text
             id="text184"
             style="font-variant:normal;font-weight:normal;font-size:16px;font-family:Arial;-inkscape-font-specification:ArialMT;writing-mode:lr-tb;fill:#000000;fill-opacity:1;fill-rule:nonzero;stroke:none"
             transform="translate(133.0625,444)"><tspan
               id="tspan182"
               y="0"
               x="0 11 16 25 33 37 46 55 59 68 77 81 90 94 98 106 110 119 123 127 135 144 153 158 162 173 182 191 195 206 215 224 228 237 246 250 258 267 276 280 284 293 302 307 316 320 324 333 342">Provide details of your App Engine configuration:</tspan></text>
<text
             id="text188"
             style="font-variant:normal;font-weight:normal;font-size:12.80000019px;font-family:'Courier New';-inkscape-font-specification:CourierNewPSMT;writing-mode:lr-tb;fill:#000000;fill-opacity:1;fill-rule:nonzero;stroke:none"
             transform="translate(133.0625,482)"><tspan
               id="tspan186"
               y="0"
               x="0 8 16 24 32 40 48 56">app.yaml</tspan></text>
<text
             id="text192"
             style="font-variant:normal;font-weight:normal;font-size:16px;font-family:Arial;-inkscape-font-specification:ArialMT;writing-mode:lr-tb;fill:#000000;fill-opacity:1;fill-rule:nonzero;stroke:none"
             transform="translate(197.0625,482)"><tspan
               id="tspan190"
               y="0"
               x="0">:</tspan></text>
<text
             id="text196"
             style="font-variant:normal;font-weight:normal;font-size:16px;font-family:Arial;-inkscape-font-specification:ArialMT;writing-mode:lr-tb;fill:#000000;fill-opacity:1;fill-rule:nonzero;stroke:none"
             transform="translate(133.0625,864)"><tspan
               id="tspan194"
               y="0"
               x="0 12 24 35 39 50 55 64 68 77 85 89 93 97 109">GCP Project ID:</tspan></text>
</g></g></g><g
       id="g198"><g
         clip-path="url(#clipPath204)"
         id="g200"><g
           transform="scale(3.125)"
           id="g206"><path
             id="path208"
             style="fill:#ffffff;fill-opacity:1;fill-rule:nonzero;stroke:none"
             d="m 133.5,889.5 v -17 c -2e-5,-0.26532 0.0507,-0.52045 0.15222,-0.7655 0.10149,-0.24506 0.246,-0.46131 0.43355,-0.64881 0.18753,-0.18756 0.40381,-0.33203 0.64885,-0.43353 C 134.97964,870.55072 135.23477,870.5 135.5,870.5 h 153 c 0.26517,0 0.52029,0.0507 0.76535,0.15216 0.245,0.1015 0.46127,0.24597 0.64883,0.43353 0.18754,0.1875 0.33204,0.40375 0.43357,0.64881 0.10147,0.24505 0.15222,0.50018 0.15225,0.7655 v 17 c -3e-5,0.26514 -0.0508,0.5202 -0.15225,0.7652 -0.10153,0.24511 -0.24603,0.46142 -0.43357,0.64898 -0.18756,0.18744 -0.40383,0.33197 -0.64883,0.43348 -0.24506,0.1015 -0.50018,0.15228 -0.76535,0.15234 h -153 c -0.26523,-6e-5 -0.52036,-0.0508 -0.7654,-0.15234 -0.24502,-0.10151 -0.4613,-0.24604 -0.64883,-0.43348 -0.18755,-0.18756 -0.33206,-0.40387 -0.43355,-0.64892 -0.1015,-0.24506 -0.15224,-0.50012 -0.15222,-0.76526 z" /><path
             id="path210"
             style="fill:none;stroke:#767676;stroke-width:1;stroke-linecap:butt;stroke-linejoin:miter;stroke-miterlimit:10;stroke-dasharray:none;stroke-opacity:1"
             d="m 133.5,889.5 v -17 c -2e-5,-0.26532 0.0507,-0.52045 0.15222,-0.7655 0.10149,-0.24506 0.246,-0.46131 0.43355,-0.64881 0.18753,-0.18756 0.40381,-0.33203 0.64885,-0.43353 C 134.97964,870.55072 135.23477,870.5 135.5,870.5 h 153 c 0.26517,0 0.52029,0.0507 0.76535,0.15216 0.245,0.1015 0.46127,0.24597 0.64883,0.43353 0.18754,0.1875 0.33204,0.40375 0.43357,0.64881 0.10147,0.24505 0.15222,0.50018 0.15225,0.7655 v 17 c -3e-5,0.26514 -0.0508,0.5202 -0.15225,0.7652 -0.10153,0.24511 -0.24603,0.46142 -0.43357,0.64898 -0.18756,0.18744 -0.40383,0.33197 -0.64883,0.43348 -0.24506,0.1015 -0.50018,0.15228 -0.76535,0.15234 h -153 c -0.26523,-6e-5 -0.52036,-0.0508 -0.7654,-0.15234 -0.24502,-0.10151 -0.4613,-0.24604 -0.64883,-0.43348 -0.18755,-0.18756 -0.33206,-0.40387 -0.43355,-0.64892 -0.1015,-0.24506 -0.15224,-0.50012 -0.15222,-0.76526 z" /></g></g></g><g
       id="g212"><g
         clip-path="url(#clipPath218)"
         id="g214"><g
           transform="scale(3.125)"
           id="g220"><text
             id="text224"
             style="font-variant:normal;font-weight:normal;font-size:16px;font-family:Arial;-inkscape-font-specification:ArialMT;writing-mode:lr-tb;fill:#000000;fill-opacity:1;fill-rule:nonzero;stroke:none"
             transform="translate(133.0625,938)"><tspan
               id="tspan222"
               y="0"
               x="0 11 20 29 33 44 53 62 66 75 84 88 93 102 111 115 124 133">App Engine region:</tspan></text>
</g></g></g><g
       id="g226"><g
         clip-path="url(#clipPath232)"
         id="g228"><g
           transform="scale(3.125)"
           id="g234"><path
             id="path236"
             style="fill:#ffffff;fill-opacity:1;fill-rule:nonzero;stroke:none"
             d="m 133.5,963.5 v -17 c -2e-5,-0.26532 0.0507,-0.52045 0.15222,-0.7655 0.10149,-0.24506 0.246,-0.46131 0.43355,-0.64881 0.18753,-0.18756 0.40381,-0.33203 0.64885,-0.43353 C 134.97964,944.55072 135.23477,944.5 135.5,944.5 h 153 c 0.26517,0 0.52029,0.0507 0.76535,0.15216 0.245,0.1015 0.46127,0.24597 0.64883,0.43353 0.18754,0.1875 0.33204,0.40381 0.43357,0.64887 0.10147,0.24499 0.15222,0.50012 0.15225,0.76544 v 17 c -3e-5,0.2652 -0.0508,0.52026 -0.15225,0.76526 -0.10153,0.24505 -0.24603,0.46136 -0.43357,0.64892 -0.18756,0.1875 -0.40383,0.33204 -0.64883,0.43354 -0.24506,0.1015 -0.50018,0.15222 -0.76535,0.15228 h -153 c -0.26523,-6e-5 -0.52036,-0.0508 -0.7654,-0.15228 -0.24502,-0.1015 -0.4613,-0.24604 -0.64883,-0.43354 -0.18755,-0.18756 -0.33206,-0.40387 -0.43355,-0.64892 -0.1015,-0.245 -0.15224,-0.50006 -0.15222,-0.76526 z" /><path
             id="path238"
             style="fill:none;stroke:#767676;stroke-width:1;stroke-linecap:butt;stroke-linejoin:miter;stroke-miterlimit:10;stroke-dasharray:none;stroke-opacity:1"
             d="m 133.5,963.5 v -17 c -2e-5,-0.26532 0.0507,-0.52045 0.15222,-0.7655 0.10149,-0.24506 0.246,-0.46131 0.43355,-0.64881 0.18753,-0.18756 0.40381,-0.33203 0.64885,-0.43353 C 134.97964,944.55072 135.23477,944.5 135.5,944.5 h 153 c 0.26517,0 0.52029,0.0507 0.76535,0.15216 0.245,0.1015 0.46127,0.24597 0.64883,0.43353 0.18754,0.1875 0.33204,0.40381 0.43357,0.64887 0.10147,0.24499 0.15222,0.50012 0.15225,0.76544 v 17 c -3e-5,0.2652 -0.0508,0.52026 -0.15225,0.76526 -0.10153,0.24505 -0.24603,0.46136 -0.43357,0.64892 -0.18756,0.1875 -0.40383,0.33204 -0.64883,0.43354 -0.24506,0.1015 -0.50018,0.15222 -0.76535,0.15228 h -153 c -0.26523,-6e-5 -0.52036,-0.0508 -0.7654,-0.15228 -0.24502,-0.1015 -0.4613,-0.24604 -0.64883,-0.43354 -0.18755,-0.18756 -0.33206,-0.40387 -0.43355,-0.64892 -0.1015,-0.245 -0.15224,-0.50006 -0.15222,-0.76526 z" /></g></g></g><g
       id="g240"><g
         clip-path="url(#clipPath246)"
         id="g242"><g
           transform="matrix(0.23803711,0,0,0.23803711,2521.875,1140.625)"
           id="g248"><path
             id="path250"
             style="fill:#4285f4;fill-opacity:1;fill-rule:nonzero;stroke:none"
             d="M 505.89999,232.48 400.67999,49.479996 C 392.23999,34.91 377,26 361.22,26 H 150.78999 c -16.86,0 -31.58999,9.880001 -39.46,23.5 L 6.1100001,232.10001 c -4.0708198,7.08166 -6.10622803,14.70665 -6.10622556,22.87497 2.47e-6,8.16833 2.03541576,15.79333 6.10623946,22.87503 L 111.33,461.65002 C 119.75,476.26001 135,486 150.78,486 h 210.42999 c 16.86002,0 31.59,-10.63 39.45999,-24.23999 l 105.22,-183 c 4.06821,-7.17642 6.10321,-14.88931 6.10502,-23.13867 0.002,-8.24936 -2.02991,-15.96314 -6.09501,-23.14133 z" /><path
             id="path252"
             style="fill:#000000;fill-opacity:0.0667;fill-rule:nonzero;stroke:none"
             d="M 390.38,256 242.72,169 254.34,223.82001 199,168.48 209.84,252 162.84,367.85999 281,486 h 80.23999 c 16.85999,0 31.59,-10.63 39.45999,-24.23999 L 472,337.64999 Z" /><path
             id="path254"
             style="fill:#ffffff;fill-opacity:1;fill-rule:nonzero;stroke:none"
             d="M 226.16,256 199.03,168.48 162.85001,144.11999 197.52,256 162.85001,367.88 199.03,343.51999 Z" /><path
             id="path256"
             style="fill:#ffffff;fill-opacity:1;fill-rule:nonzero;stroke:none"
             d="M 224.2,144.11999 258.88,256 224.2,367.88 390.38,256 Z M 270.67001,240 252.92001,182.74001 338,240 Z" /></g></g></g><g
       id="g258"><g
         clip-path="url(#clipPath264)"
         id="g260"><g
           transform="scale(3.125)"
           id="g266"><text
             id="text270"
             style="font-variant:normal;font-weight:bold;font-size:28px;font-family:Arial;-inkscape-font-specification:Arial-BoldMT;writing-mode:lr-tb;fill:#000000;fill-opacity:1;fill-rule:nonzero;stroke:none"
             transform="translate(854.9375,394)"><tspan
               id="tspan268"
               y="0"
               x="0 23 31 48 59 75 84 92 109 126 134 143 160 168 188 196 213 230 247 255 275 292">Migrating to Cloud Run</tspan></text>
<text
             id="text274"
             style="font-variant:normal;font-weight:normal;font-size:16px;font-family:Arial;-inkscape-font-specification:ArialMT;writing-mode:lr-tb;fill:#000000;fill-opacity:1;fill-rule:nonzero;stroke:none"
             transform="translate(806.9375,444)"><tspan
               id="tspan272"
               y="0"
               x="0 12 17 26 35 39 48 52 61 65 69 73 77 86 90 99 108 121 130 139">Create a file named </tspan></text>
<text
             id="text278"
             style="font-variant:normal;font-weight:normal;font-size:12.80000019px;font-family:'Courier New';-inkscape-font-specification:CourierNewPSMT;writing-mode:lr-tb;fill:#000000;fill-opacity:1;fill-rule:nonzero;stroke:none"
             transform="translate(949.9375,444)"><tspan
               id="tspan276"
               y="0"
               x="0 8 16 24 32 40 48 56 64 72 80 88">service.yaml</tspan></text>
<text
             id="text282"
             style="font-variant:normal;font-weight:normal;font-size:16px;font-family:Arial;-inkscape-font-specification:ArialMT;writing-mode:lr-tb;fill:#000000;fill-opacity:1;fill-rule:nonzero;stroke:none"
             transform="translate(1049.9375,444)"><tspan
               id="tspan280"
               y="0"
               x="0 12 16 20 29 33 37 46 55 59 63 72 76 80 89 101 105 114 123 127 135 144 153 157 166 175 179">with the following content:</tspan></text>
<text
             id="text286"
             style="font-variant:normal;font-weight:normal;font-size:12.80000019px;font-family:'Courier New';-inkscape-font-specification:CourierNewPSMT;writing-mode:lr-tb;fill:#000000;fill-opacity:1;fill-rule:nonzero;stroke:none"
             transform="translate(806.9375,482)"><tspan
               id="tspan284"
               y="0"
               x="0 8 16 24 32 40 48 56 64 72 80 88">service.yaml</tspan></text>
<text
             id="text290"
             style="font-variant:normal;font-weight:normal;font-size:16px;font-family:Arial;-inkscape-font-specification:ArialMT;writing-mode:lr-tb;fill:#000000;fill-opacity:1;fill-rule:nonzero;stroke:none"
             transform="translate(902.9375,482)"><tspan
               id="tspan288"
               y="0"
               x="0">:</tspan></text>
<text
             id="text294"
             style="font-variant:normal;font-weight:normal;font-size:16px;font-family:Arial;-inkscape-font-specification:ArialMT;writing-mode:lr-tb;fill:#000000;fill-opacity:1;fill-rule:nonzero;stroke:none"
             transform="translate(806.9375,864)"><tspan
               id="tspan292"
               y="0"
               x="0 8 17 21 30 39 43 47 56 60 69 78 87 91 100 109 118 122 131 139 143 147 156 160 172 176 185 194 203 207 219 228 237 241 245 250 259 268 272 276 285 294 298 302 311 315 319 328 340 344 353 362 366 374 383 396 409 418 427 436">To build and deploy to Cloud Run, run the following command:</tspan></text>
</g></g></g><g
       id="g296"><g
         clip-path="url(#clipPath302)"
         id="g298"><g
           transform="scale(3.125)"
           id="g304"><path
             id="path306"
             style="fill:#ffffff;fill-opacity:1;fill-rule:nonzero;stroke:none"
             d="m 133.5,810.5 v -321 c -2e-5,-0.26526 0.0507,-0.52042 0.15222,-0.76544 0.10149,-0.24503 0.246,-0.46128 0.43355,-0.64881 0.18753,-0.18753 0.40381,-0.33206 0.64885,-0.43353 C 134.97964,487.55075 135.23477,487.5 135.5,487.5 h 561 c 0.2652,0 0.52026,0.0507 0.76532,0.15222 0.24499,0.10147 0.4613,0.246 0.64886,0.43353 0.1875,0.18753 0.33197,0.40381 0.43348,0.64884 0.1015,0.24502 0.15228,0.50015 0.15234,0.76541 v 321 c -6e-5,0.26514 -0.0508,0.5202 -0.15234,0.7652 -0.10151,0.24505 -0.24598,0.46136 -0.43348,0.64892 -0.18756,0.1875 -0.40387,0.33203 -0.64886,0.43354 -0.24506,0.1015 -0.50012,0.15228 -0.76532,0.15234 h -561 c -0.26523,-6e-5 -0.52036,-0.0508 -0.7654,-0.15234 -0.24502,-0.10151 -0.4613,-0.24604 -0.64883,-0.43354 -0.18755,-0.18756 -0.33206,-0.40387 -0.43355,-0.64886 -0.1015,-0.24506 -0.15224,-0.50012 -0.15222,-0.76526 z" /><path
             id="path308"
             style="fill:none;stroke:#767676;stroke-width:1;stroke-linecap:butt;stroke-linejoin:miter;stroke-miterlimit:10;stroke-dasharray:none;stroke-opacity:1"
             d="m 133.5,810.5 v -321 c -2e-5,-0.26526 0.0507,-0.52042 0.15222,-0.76544 0.10149,-0.24503 0.246,-0.46128 0.43355,-0.64881 0.18753,-0.18753 0.40381,-0.33206 0.64885,-0.43353 C 134.97964,487.55075 135.23477,487.5 135.5,487.5 h 561 c 0.2652,0 0.52026,0.0507 0.76532,0.15222 0.24499,0.10147 0.4613,0.246 0.64886,0.43353 0.1875,0.18753 0.33197,0.40381 0.43348,0.64884 0.1015,0.24502 0.15228,0.50015 0.15234,0.76541 v 321 c -6e-5,0.26514 -0.0508,0.5202 -0.15234,0.7652 -0.10151,0.24505 -0.24598,0.46136 -0.43348,0.64892 -0.18756,0.1875 -0.40387,0.33203 -0.64886,0.43354 -0.24506,0.1015 -0.50012,0.15228 -0.76532,0.15234 h -561 c -0.26523,-6e-5 -0.52036,-0.0508 -0.7654,-0.15234 -0.24502,-0.10151 -0.4613,-0.24604 -0.64883,-0.43354 -0.18755,-0.18756 -0.33206,-0.40387 -0.43355,-0.64886 -0.1015,-0.24506 -0.15224,-0.50012 -0.15222,-0.76526 z" /></g></g></g><g
       id="g310"><g
         clip-path="url(#clipPath316)"
         id="g312"><g
           transform="scale(3.125)"
           id="g318"><text
             id="text322"
             style="font-variant:normal;font-weight:normal;font-size:12.80000019px;font-family:'Courier New';-inkscape-font-specification:CourierNewPSMT;writing-mode:lr-tb;fill:#000000;fill-opacity:1;fill-rule:nonzero;stroke:none"
             transform="translate(136.0625,502)"><tspan
               id="tspan320"
               y="0"
               x="0 8 16 24 32 40 48 56 64 72 80 88 96 104 112 120 128">runtime: nodejs10</tspan></text>
<text
             id="text326"
             style="font-variant:normal;font-weight:normal;font-size:12.80000019px;font-family:'Courier New';-inkscape-font-specification:CourierNewPSMT;writing-mode:lr-tb;fill:#000000;fill-opacity:1;fill-rule:nonzero;stroke:none"
             transform="translate(136.0625,518)"><tspan
               id="tspan324"
               y="0"
               x="0 8 16 24 32 40 48 56 64 72 80 88 96 104 112 120 128 136 144">service: my-service</tspan></text>
<text
             id="text330"
             style="font-variant:normal;font-weight:normal;font-size:12.80000019px;font-family:'Courier New';-inkscape-font-specification:CourierNewPSMT;writing-mode:lr-tb;fill:#000000;fill-opacity:1;fill-rule:nonzero;stroke:none"
             transform="translate(136.0625,550)"><tspan
               id="tspan328"
               y="0"
               x="0 8 16 24 32 40 48 56 64 72 80 88 96 104 112 120 128 136">instance_class: F2</tspan></text>
<text
             id="text334"
             style="font-variant:normal;font-weight:normal;font-size:12.80000019px;font-family:'Courier New';-inkscape-font-specification:CourierNewPSMT;writing-mode:lr-tb;fill:#000000;fill-opacity:1;fill-rule:nonzero;stroke:none"
             transform="translate(136.0625,582)"><tspan
               id="tspan332"
               y="0"
               x="0 8 16 24 32 40 48 56 64">handlers:</tspan></text>
<text
             id="text338"
             style="font-variant:normal;font-weight:normal;font-size:12.80000019px;font-family:'Courier New';-inkscape-font-specification:CourierNewPSMT;writing-mode:lr-tb;fill:#000000;fill-opacity:1;fill-rule:nonzero;stroke:none"
             transform="translate(136.0625,598)"><tspan
               id="tspan336"
               y="0"
               x="0 8 16 24 32 40 48 56 64 72">- url: /.*</tspan></text>
<text
             id="text342"
             style="font-variant:normal;font-weight:normal;font-size:12.80000019px;font-family:'Courier New';-inkscape-font-specification:CourierNewPSMT;writing-mode:lr-tb;fill:#000000;fill-opacity:1;fill-rule:nonzero;stroke:none"
             transform="translate(152.0625,614)"><tspan
               id="tspan340"
               y="0"
               x="0 8 16 24 32 40 48 56 64 72 80 88">script: auto</tspan></text>
<text
             id="text346"
             style="font-variant:normal;font-weight:normal;font-size:12.80000019px;font-family:'Courier New';-inkscape-font-specification:CourierNewPSMT;writing-mode:lr-tb;fill:#000000;fill-opacity:1;fill-rule:nonzero;stroke:none"
             transform="translate(152.0625,630)"><tspan
               id="tspan344"
               y="0"
               x="0 8 16 24 32 40 48 56 64 72 80 88 96 104">secure: always</tspan></text>
<text
             id="text350"
             style="font-variant:normal;font-weight:normal;font-size:12.80000019px;font-family:'Courier New';-inkscape-font-specification:CourierNewPSMT;writing-mode:lr-tb;fill:#000000;fill-opacity:1;fill-rule:nonzero;stroke:none"
             transform="translate(152.0625,646)"><tspan
               id="tspan348"
               y="0"
               x="0 8 16 24 32 40 48 56 64 72 80 88 96 104 112 120 128 136 144 152 160 168 176 184 192 200 208 216 224 232 240 248">redirect_http_response_code: 301</tspan></text>
<text
             id="text354"
             style="font-variant:normal;font-weight:normal;font-size:12.80000019px;font-family:'Courier New';-inkscape-font-specification:CourierNewPSMT;writing-mode:lr-tb;fill:#000000;fill-opacity:1;fill-rule:nonzero;stroke:none"
             transform="translate(136.0625,678)"><tspan
               id="tspan352"
               y="0"
               x="0 8 16 24 32 40 48 56 64 72 80 88 96 104">env_variables:</tspan></text>
<text
             id="text358"
             style="font-variant:normal;font-weight:normal;font-size:12.80000019px;font-family:'Courier New';-inkscape-font-specification:CourierNewPSMT;writing-mode:lr-tb;fill:#000000;fill-opacity:1;fill-rule:nonzero;stroke:none"
             transform="translate(152.0625,694)"><tspan
               id="tspan356"
               y="0"
               x="0 8 16 24 32 40 48 56 64 72">LIMIT: 100</tspan></text>
<text
             id="text362"
             style="font-variant:normal;font-weight:normal;font-size:12.80000019px;font-family:'Courier New';-inkscape-font-specification:CourierNewPSMT;writing-mode:lr-tb;fill:#000000;fill-opacity:1;fill-rule:nonzero;stroke:none"
             transform="translate(152.0625,710)"><tspan
               id="tspan360"
               y="0"
               x="0 8 16 24 32 40 48 56 64 72 80 88 96 104 112 120 128 136">QUEUE_ID: 'emails'</tspan></text>
<text
             id="text366"
             style="font-variant:normal;font-weight:normal;font-size:12.80000019px;font-family:'Courier New';-inkscape-font-specification:CourierNewPSMT;writing-mode:lr-tb;fill:#000000;fill-opacity:1;fill-rule:nonzero;stroke:none"
             transform="translate(136.0625,742)"><tspan
               id="tspan364"
               y="0"
               x="0 8 16 24 32 40 48 56 64 72 80 88 96 104 112 120 128 136">automatic_scaling:</tspan></text>
<text
             id="text370"
             style="font-variant:normal;font-weight:normal;font-size:12.80000019px;font-family:'Courier New';-inkscape-font-specification:CourierNewPSMT;writing-mode:lr-tb;fill:#000000;fill-opacity:1;fill-rule:nonzero;stroke:none"
             transform="translate(152.0625,758)"><tspan
               id="tspan368"
               y="0"
               x="0 8 16 24 32 40 48 56 64 72 80 88 96 104 112 120 128 136 144 152 160 168 176 184 192 200 208">max_concurrent_requests: 80</tspan></text>
<text
             id="text374"
             style="font-variant:normal;font-weight:normal;font-size:12.80000019px;font-family:'Courier New';-inkscape-font-specification:CourierNewPSMT;writing-mode:lr-tb;fill:#000000;fill-opacity:1;fill-rule:nonzero;stroke:none"
             transform="translate(152.0625,774)"><tspan
               id="tspan372"
               y="0"
               x="0 8 16 24 32 40 48 56 64 72 80 88 96 104 112 120 128">max_instances: 10</tspan></text>
<path
             id="path376"
             style="fill:none;stroke:#000000;stroke-width:1;stroke-linecap:butt;stroke-linejoin:miter;stroke-miterlimit:10;stroke-dasharray:none;stroke-opacity:0.6"
             d="m 697,804 -7,7 m 7,-3 -3,3" /><path
             id="path378"
             style="fill:none;stroke:#ffffff;stroke-width:1;stroke-linecap:butt;stroke-linejoin:miter;stroke-miterlimit:10;stroke-dasharray:none;stroke-opacity:0.6"
             d="m 697,805 -6,6 m 6,-2 -2,2" /></g></g></g><g
       id="g380"><g
         clip-path="url(#clipPath386)"
         id="g382"><g
           transform="matrix(3.125,0,0,3.125,2521.875,1521.875)"
           id="g388"><path
             id="path390"
             style="fill:#ffffff;fill-opacity:1;fill-rule:nonzero;stroke:none"
             d="M 0.5,323.5 V 2.5 C 0.49999997,2.2347832 0.5507469,1.9796607 0.65224087,1.7346328 0.75373483,1.4896047 0.89824998,1.2733226 1.0857863,1.0857863 1.2733226,0.89824998 1.4896047,0.75373483 1.7346328,0.65224087 1.9796607,0.55074698 2.2347832,0.5 2.5,0.5 h 561 c 0.2652,0 0.52032,0.050747 0.76532,0.15224087 0.24499,0.10149396 0.4613,0.24600911 0.64886,0.43354543 0.18757,0.1875363 0.33204,0.4038184 0.43354,0.6488465 C 565.44922,1.9796607 565.49994,2.2347832 565.5,2.5 v 321 c -6e-5,0.2652 -0.0508,0.52029 -0.15228,0.76532 -0.1015,0.24503 -0.24597,0.4613 -0.43354,0.6489 -0.18756,0.18753 -0.40387,0.33203 -0.64886,0.43353 -0.245,0.10147 -0.50012,0.15222 -0.76532,0.15225 H 2.5 c -0.2652168,-3e-5 -0.5203393,-0.0508 -0.7653672,-0.15225 -0.2450281,-0.1015 -0.4613102,-0.246 -0.6488465,-0.43353 -0.18753632,-0.1876 -0.33205147,-0.40387 -0.43354543,-0.6489 C 0.55074692,324.02029 0.49999997,323.7652 0.5,323.5 Z" /><path
             id="path392"
             style="fill:none;stroke:#767676;stroke-width:1;stroke-linecap:butt;stroke-linejoin:miter;stroke-miterlimit:10;stroke-dasharray:none;stroke-opacity:1"
             d="M 0.5,323.5 V 2.5 C 0.49999997,2.2347832 0.5507469,1.9796607 0.65224087,1.7346328 0.75373483,1.4896047 0.89824998,1.2733226 1.0857863,1.0857863 1.2733226,0.89824998 1.4896047,0.75373483 1.7346328,0.65224087 1.9796607,0.55074698 2.2347832,0.5 2.5,0.5 h 561 c 0.2652,0 0.52032,0.050747 0.76532,0.15224087 0.24499,0.10149396 0.4613,0.24600911 0.64886,0.43354543 0.18757,0.1875363 0.33204,0.4038184 0.43354,0.6488465 C 565.44922,1.9796607 565.49994,2.2347832 565.5,2.5 v 321 c -6e-5,0.2652 -0.0508,0.52029 -0.15228,0.76532 -0.1015,0.24503 -0.24597,0.4613 -0.43354,0.6489 -0.18756,0.18753 -0.40387,0.33203 -0.64886,0.43353 -0.245,0.10147 -0.50012,0.15222 -0.76532,0.15225 H 2.5 c -0.2652168,-3e-5 -0.5203393,-0.0508 -0.7653672,-0.15225 -0.2450281,-0.1015 -0.4613102,-0.246 -0.6488465,-0.43353 -0.18753632,-0.1876 -0.33205147,-0.40387 -0.43354543,-0.6489 C 0.55074692,324.02029 0.49999997,323.7652 0.5,323.5 Z" /></g></g></g><g
       id="g394"><g
         clip-path="url(#clipPath400)"
         id="g396"><g
           transform="matrix(3.125,0,0,3.125,2521.875,1521.875)"
           id="g402"><text
             id="text406"
             style="font-variant:normal;font-weight:normal;font-size:12.80000019px;font-family:'Courier New';-inkscape-font-specification:CourierNewPSMT;writing-mode:lr-tb;fill:#000000;fill-opacity:1;fill-rule:nonzero;stroke:none"
             transform="translate(2.9375,15)"><tspan
               id="tspan404"
               y="0"
               x="0 8 16 24 32 40 48 56 64 72 80 88 96 104 112 120 128 136 144 152 160 168 176 184 192 200 208 216 224 232 240 248 256 264">apiVersion: serving.knative.dev/v1</tspan></text>
<text
             id="text410"
             style="font-variant:normal;font-weight:normal;font-size:12.80000019px;font-family:'Courier New';-inkscape-font-specification:CourierNewPSMT;writing-mode:lr-tb;fill:#000000;fill-opacity:1;fill-rule:nonzero;stroke:none"
             transform="translate(2.9375,31)"><tspan
               id="tspan408"
               y="0"
               x="0 8 16 24 32 40 48 56 64 72 80 88 96">kind: Service</tspan></text>
<text
             id="text414"
             style="font-variant:normal;font-weight:normal;font-size:12.80000019px;font-family:'Courier New';-inkscape-font-specification:CourierNewPSMT;writing-mode:lr-tb;fill:#000000;fill-opacity:1;fill-rule:nonzero;stroke:none"
             transform="translate(2.9375,47)"><tspan
               id="tspan412"
               y="0"
               x="0 8 16 24 32 40 48 56 64">metadata:</tspan></text>
<text
             id="text418"
             style="font-variant:normal;font-weight:normal;font-size:12.80000019px;font-family:'Courier New';-inkscape-font-specification:CourierNewPSMT;writing-mode:lr-tb;fill:#000000;fill-opacity:1;fill-rule:nonzero;stroke:none"
             transform="translate(18.9375,63)"><tspan
               id="tspan416"
               y="0"
               x="0 8 16 24 32 40 48 56 64 72 80 88 96 104 112 120">name: my-service</tspan></text>
<text
             id="text422"
             style="font-variant:normal;font-weight:normal;font-size:12.80000019px;font-family:'Courier New';-inkscape-font-specification:CourierNewPSMT;writing-mode:lr-tb;fill:#000000;fill-opacity:1;fill-rule:nonzero;stroke:none"
             transform="translate(18.9375,79)"><tspan
               id="tspan420"
               y="0"
               x="0 8 16 24 32 40 48">labels:</tspan></text>
<text
             id="text426"
             style="font-variant:normal;font-weight:normal;font-size:12.80000019px;font-family:'Courier New';-inkscape-font-specification:CourierNewPSMT;writing-mode:lr-tb;fill:#000000;fill-opacity:1;fill-rule:nonzero;stroke:none"
             transform="translate(34.9375,95)"><tspan
               id="tspan424"
               y="0"
               x="0 8 16 24 32 40 48 56 64 72 80 88 96 104 112 120 128 136 144 152 160 168 176 184 192 200 208 216 224 232 240 248 256 264 272 280 288 296 304 312 320 328 336 344">- cloud.googleapis.com/location: us-central1</tspan></text>
<text
             id="text430"
             style="font-variant:normal;font-weight:normal;font-size:12.80000019px;font-family:'Courier New';-inkscape-font-specification:CourierNewPSMT;writing-mode:lr-tb;fill:#000000;fill-opacity:1;fill-rule:nonzero;stroke:none"
             transform="translate(2.9375,111)"><tspan
               id="tspan428"
               y="0"
               x="0 8 16 24 32">spec:</tspan></text>
<text
             id="text434"
             style="font-variant:normal;font-weight:normal;font-size:12.80000019px;font-family:'Courier New';-inkscape-font-specification:CourierNewPSMT;writing-mode:lr-tb;fill:#000000;fill-opacity:1;fill-rule:nonzero;stroke:none"
             transform="translate(18.9375,127)"><tspan
               id="tspan432"
               y="0"
               x="0 8 16 24 32 40 48 56 64">template:</tspan></text>
<text
             id="text438"
             style="font-variant:normal;font-weight:normal;font-size:12.80000019px;font-family:'Courier New';-inkscape-font-specification:CourierNewPSMT;writing-mode:lr-tb;fill:#000000;fill-opacity:1;fill-rule:nonzero;stroke:none"
             transform="translate(34.9375,143)"><tspan
               id="tspan436"
               y="0"
               x="0 8 16 24 32 40 48 56 64">metadata:</tspan></text>
<text
             id="text442"
             style="font-variant:normal;font-weight:normal;font-size:12.80000019px;font-family:'Courier New';-inkscape-font-specification:CourierNewPSMT;writing-mode:lr-tb;fill:#000000;fill-opacity:1;fill-rule:nonzero;stroke:none"
             transform="translate(50.9375,159)"><tspan
               id="tspan440"
               y="0"
               x="0 8 16 24 32 40 48 56 64 72 80 88">annotations:</tspan></text>
<text
             id="text446"
             style="font-variant:normal;font-weight:normal;font-size:12.80000019px;font-family:'Courier New';-inkscape-font-specification:CourierNewPSMT;writing-mode:lr-tb;fill:#000000;fill-opacity:1;fill-rule:nonzero;stroke:none"
             transform="translate(66.9375,175)"><tspan
               id="tspan444"
               y="0"
               x="0 8 16 24 32 40 48 56 64 72 80 88 96 104 112 120 128 136 144 152 160 168 176 184 192">migrated-from: app-engine</tspan></text>
<text
             id="text450"
             style="font-variant:normal;font-weight:normal;font-size:12.80000019px;font-family:'Courier New';-inkscape-font-specification:CourierNewPSMT;writing-mode:lr-tb;fill:#000000;fill-opacity:1;fill-rule:nonzero;stroke:none"
             transform="translate(66.9375,191)"><tspan
               id="tspan448"
               y="0"
               x="0 8 16 24 32 40 48 56 64 72 80 88 96 104 112 120 128 136 144 152 160 168 176 184 192 200 208 216 224 232 240 248 256 264 272 280 288 296">autoscaling.knative.dev/maxScale: '10'</tspan></text>
<text
             id="text454"
             style="font-variant:normal;font-weight:normal;font-size:12.80000019px;font-family:'Courier New';-inkscape-font-specification:CourierNewPSMT;writing-mode:lr-tb;fill:#000000;fill-opacity:1;fill-rule:nonzero;stroke:none"
             transform="translate(34.9375,207)"><tspan
               id="tspan452"
               y="0"
               x="0 8 16 24 32">spec:</tspan></text>
<text
             id="text458"
             style="font-variant:normal;font-weight:normal;font-size:12.80000019px;font-family:'Courier New';-inkscape-font-specification:CourierNewPSMT;writing-mode:lr-tb;fill:#000000;fill-opacity:1;fill-rule:nonzero;stroke:none"
             transform="translate(50.9375,223)"><tspan
               id="tspan456"
               y="0"
               x="0 8 16 24 32 40 48 56 64 72 80">containers:</tspan></text>
<text
             id="text462"
             style="font-variant:normal;font-weight:normal;font-size:12.80000019px;font-family:'Courier New';-inkscape-font-specification:CourierNewPSMT;writing-mode:lr-tb;fill:#000000;fill-opacity:1;fill-rule:nonzero;stroke:none"
             transform="translate(66.9375,239)"><tspan
               id="tspan460"
               y="0"
               x="0 8 16 24 32 40 48 56 64 72 80 88 96 104 112 120 128 136 144 152 160 168 176 184 192 200 208 216 224 232 240 248 256 264 272 280 288 296 304 312 320">- image: gcr.io/&lt;YOUR-PROJECT&gt;/my-service</tspan></text>
<text
             id="text466"
             style="font-variant:normal;font-weight:normal;font-size:12.80000019px;font-family:'Courier New';-inkscape-font-specification:CourierNewPSMT;writing-mode:lr-tb;fill:#000000;fill-opacity:1;fill-rule:nonzero;stroke:none"
             transform="translate(82.9375,255)"><tspan
               id="tspan464"
               y="0"
               x="0 8 16 24">env:</tspan></text>
<text
             id="text470"
             style="font-variant:normal;font-weight:normal;font-size:12.80000019px;font-family:'Courier New';-inkscape-font-specification:CourierNewPSMT;writing-mode:lr-tb;fill:#000000;fill-opacity:1;fill-rule:nonzero;stroke:none"
             transform="translate(98.9375,271)"><tspan
               id="tspan468"
               y="0"
               x="0 8 16 24 32 40 48 56 64 72 80 88 96">- name: LIMIT</tspan></text>
<text
             id="text474"
             style="font-variant:normal;font-weight:normal;font-size:12.80000019px;font-family:'Courier New';-inkscape-font-specification:CourierNewPSMT;writing-mode:lr-tb;fill:#000000;fill-opacity:1;fill-rule:nonzero;stroke:none"
             transform="translate(114.9375,287)"><tspan
               id="tspan472"
               y="0"
               x="0 8 16 24 32 40 48 56 64 72">value: 100</tspan></text>
<text
             id="text478"
             style="font-variant:normal;font-weight:normal;font-size:12.80000019px;font-family:'Courier New';-inkscape-font-specification:CourierNewPSMT;writing-mode:lr-tb;fill:#000000;fill-opacity:1;fill-rule:nonzero;stroke:none"
             transform="translate(98.9375,303)"><tspan
               id="tspan476"
               y="0"
               x="0 8 16 24 32 40 48 56 64 72 80 88 96 104 112 120">- name: QUEUE_ID</tspan></text>
<text
             id="text482"
             style="font-variant:normal;font-weight:normal;font-size:12.80000019px;font-family:'Courier New';-inkscape-font-specification:CourierNewPSMT;writing-mode:lr-tb;fill:#000000;fill-opacity:1;fill-rule:nonzero;stroke:none"
             transform="translate(114.9375,319)"><tspan
               id="tspan480"
               y="0"
               x="0 8 16 24 32 40 48 56 64 72 80 88 96">value: emails</tspan></text>
</g></g></g><g
       id="g484"><g
         clip-path="url(#clipPath490)"
         id="g486"><g
           transform="matrix(3.125,0,0,3.125,2521.875,1521.875)"
           id="g492"><path
             id="path494"
             style="fill:none;stroke:#000000;stroke-width:1;stroke-linecap:butt;stroke-linejoin:miter;stroke-miterlimit:10;stroke-dasharray:none;stroke-opacity:0.6"
             d="m 564,317 -7,7 m 7,-3 -3,3" /><path
             id="path496"
             style="fill:none;stroke:#ffffff;stroke-width:1;stroke-linecap:butt;stroke-linejoin:miter;stroke-miterlimit:10;stroke-dasharray:none;stroke-opacity:0.6"
             d="m 564,318 -6,6 m 6,-2 -2,2" /></g><g
           transform="matrix(3.125,0,0,3.125,2521.875,2765.625)"
           id="g498"><path
             id="path533"
             style="fill:url(#pattern531);fill-opacity:1;fill-rule:nonzero;stroke:none"
             d="m 559,0 h 1 v 22 h -1 z" /><path
             id="path568"
             style="fill:url(#pattern566);fill-opacity:1;fill-rule:nonzero;stroke:none"
             d="M 0,0 H 1 V 22 H 0 Z" /></g></g></g><g
       id="g570"><g
         clip-path="url(#clipPath576)"
         id="g572"><g
           transform="matrix(3.125,0,0,3.125,2521.875,2765.625)"
           id="g578"><path
             id="path580"
             style="fill:#ffffff;fill-opacity:1;fill-rule:nonzero;stroke:none"
             d="M 0,0 H 1 V 22 H 0 Z" /><text
             id="text584"
             style="font-variant:normal;font-weight:normal;font-size:15.75px;font-family:'Courier New';-inkscape-font-specification:CourierNewPSMT;writing-mode:lr-tb;fill:#000000;fill-opacity:1;fill-rule:nonzero;stroke:none"
             transform="translate(0.9375,16)"><tspan
               id="tspan582"
               y="0"
               x="0 10 20 30 40 50 60 70 80 90 100 110 120 130 140 150 160 170 180 190 200 210 220 230 240 250 260 270 280 290 300 310 320 330 340 350 360 370 380 390 400 410 420 430 440 450 460 470 480 490 500 510 520 530 540 550">gcloud alpha builds submit --pack image=gcr.io/&lt;YOUR-PRO</tspan></text>
</g></g></g></g></svg>
