<svg xmlns="http://www.w3.org/2000/svg" width="1200" height="800" viewBox="0 0 317.5 211.667">
  <path fill="#4285f4" d="M205.222 69.871a8.816 8.816 0 0 0-7.526 4.488l-20.082 34.82a8.763 8.763 0 0 0 0 8.732l20.074 35.111a8.984 8.984 0 0 0 7.526 4.649h40.156a8.954 8.954 0 0 0 7.534-4.626l20.074-34.912a8.948 8.948 0 0 0 0-8.862L252.904 74.36a8.823 8.823 0 0 0-7.526-4.488z"/>
  <path fill-opacity=".07" d="m266.708 129.037-13.804 24.008a8.954 8.954 0 0 1-7.534 4.626h-15.295l-22.316-22.516 6.579-21.213-6.579-21.456 6.757 4.538 9.086 9.167-4.244-13.705 31.82 21.375Z"/>
  <path fill="#fff" d="m207.76 92.485 6.756 4.54 5.297 17.028-5.202 16.517-6.852 4.585 6.619-21.294zm17.306 7.57 3.28 10.608h12.59zm26.112 13.806-31.82 21.294 6.619-21.294-6.619-21.376z"/>
  <g fill="none" fill-rule="evenodd">
    <path fill="#ffa000" d="M102.94 88.365 90.36 100.07 78.689 76.524l6.04-13.542c1.572-2.75 4.023-2.718 5.554 0z"/>
    <path fill="#f57f17" d="m78.688 76.524 11.673 23.545-47.012 43.733z"/>
    <path fill="#ffca28" d="M116.698 70.476c2.247-2.16 4.572-1.422 5.165 1.638l12.238 71.106-40.563 24.35c-1.414.786-5.184 1.124-5.184 1.124s-3.433-.409-4.74-1.178l-40.265-23.714Z"/>
    <path fill="#ffa000" d="m78.688 76.524-35.335 67.278L59.09 45.477c.582-3.063 2.325-3.358 3.88-.655z"/>
  </g>
</svg>