<svg version="1.1" viewBox="0.0 0.0 960.0 720.0" fill="none" stroke="none" stroke-linecap="square" stroke-miterlimit="10" xmlns:xlink="http://www.w3.org/1999/xlink" xmlns="http://www.w3.org/2000/svg"><clipPath id="p.0"><path d="m0 0l960.0 0l0 720.0l-960.0 0l0 -720.0z" clip-rule="nonzero"/></clipPath><g clip-path="url(#p.0)"><path fill="#000000" fill-opacity="0.0" d="m0 0l960.0 0l0 720.0l-960.0 0z" fill-rule="evenodd"/><defs><linearGradient id="p.1" gradientUnits="userSpaceOnUse" gradientTransform="matrix(34.466491617362465 0.0 0.0 34.466491617362465 0.0 0.0)" spreadMethod="pad" x1="-10.444927322357646" y1="10.444890436518685" x2="13.926518598915292" y2="34.81642440785882"><stop offset="0.0" stop-color="#e69138"/><stop offset="1.0" stop-color="#e64138"/></linearGradient></defs><path fill="url(#p.1)" d="m0 0l960.0 0l0 720.0l-960.0 0z" fill-rule="evenodd"/><path fill="#ffffff" d="m189.11133 403.2l-11.3125 0l0 -39.4375l-43.0 0l0 39.4375l-11.25 0l0 -85.3125l11.25 0l0 36.671875l43.0 0l0 -36.671875l11.3125 0l0 85.3125zm77.22266 -76.0625l-27.421875 0l0 76.0625l-11.1875 0l0 -76.0625l-27.359375 0l0 -9.25l65.96875 0l0 9.25zm27.195312 -9.25l27.890625 69.609375l27.890625 -69.609375l14.59375 0l0 85.3125l-11.25 0l0 -33.21875l1.046875 -35.859375l-28.0 69.078125l-8.625 0l-27.9375 -68.90625l1.109375 35.6875l0 33.21875l-11.25 0l0 -85.3125l14.53125 0zm101.546875 76.109375l40.421875 0l0 9.203125l-51.734375 0l0 -85.3125l11.3125 0l0 76.109375z" fill-rule="nonzero"/><path fill="#ffffff" d="m484.07227 378.35626l-3.75 0l0 -36.09375l3.75 0l0 36.09375zm13.125 0l-6.5625 0l0 -36.09375l6.5625 0l0 36.09375zm13.125 0l-9.375 0l0 -36.09375l9.375 0l0 36.09375zm2.8125 -36.09375l38.90625 0l0 -12.1875l30.9375 30.0l-30.9375 30.0l0 -11.71875l-38.90625 0l0 -36.09375z" fill-rule="nonzero"/><path fill="#ffffff" d="m652.8887 365.16876q-14.484375 -4.15625 -21.078125 -10.21875q-6.578125 -6.0625 -6.578125 -14.96875q0 -10.078125 8.046875 -16.671875q8.0625 -6.59375 20.953125 -6.59375q8.78125 0 15.671875 3.40625q6.890625 3.390625 10.65625 9.375q3.78125 5.96875 3.78125 13.0625l-11.296875 0q0 -7.734375 -4.921875 -12.15625q-4.921875 -4.4375 -13.890625 -4.4375q-8.328125 0 -12.984375 3.671875q-4.65625 3.65625 -4.65625 10.15625q0 5.21875 4.421875 8.828125q4.421875 3.59375 15.0625 6.59375q10.640625 2.984375 16.640625 6.59375q6.0 3.59375 8.90625 8.40625q2.90625 4.796875 2.90625 11.296875q0 10.375 -8.09375 16.625q-8.078125 6.234375 -21.625 6.234375q-8.78125 0 -16.40625 -3.359375q-7.609375 -3.375 -11.75 -9.234375q-4.125 -5.859375 -4.125 -13.3125l11.3125 0q0 7.734375 5.703125 12.21875q5.71875 4.484375 15.265625 4.484375q8.90625 0 13.65625 -3.625q4.75 -3.640625 4.75 -9.90625q0 -6.265625 -4.40625 -9.6875q-4.390625 -3.4375 -15.921875 -6.78125zm74.28516 23.09375l24.375 -70.375l12.3125 0l-31.640625 85.3125l-9.96875 0l-31.578125 -85.3125l12.25 0l24.25 70.375zm110.33594 3.75q-4.328125 6.203125 -12.09375 9.28125q-7.765625 3.078125 -18.078125 3.078125q-10.4375 0 -18.53125 -4.890625q-8.078125 -4.890625 -12.5 -13.90625q-4.421875 -9.03125 -4.53125 -20.9375l0 -7.4375q0 -19.28125 8.984375 -29.875q9.0 -10.609375 25.28125 -10.609375q13.359375 0 21.5 6.828125q8.15625 6.828125 9.96875 19.359375l-11.25 0q-3.15625 -16.9375 -20.15625 -16.9375q-11.3125 0 -17.140625 7.953125q-5.828125 7.9375 -5.890625 22.984375l0 6.984375q0 14.34375 6.5625 22.8125q6.5625 8.46875 17.765625 8.46875q6.328125 0 11.0625 -1.40625q4.75 -1.40625 7.859375 -4.75l0 -19.15625l-19.75 0l0 -9.140625l30.9375 0l0 31.296875z" fill-rule="nonzero"/></g></svg>