<?xml version="1.0" encoding="utf-8"?>
<svg viewBox="0 0 512 512" xmlns="http://www.w3.org/2000/svg" xmlns:bx="https://boxy-svg.com">
  <defs>
    <linearGradient id="linearGradient1478" gradientUnits="userSpaceOnUse" gradientTransform="matrix(0.686854, 0, 0, 0.693485, 139.611994, 155.577925)" x1="26.648937" y1="20.603781" x2="135.66525" y2="114.39767" href="#linearGradient4689"/>
    <linearGradient id="linearGradient4689">
      <stop style="stop-color:#5a9fd4;stop-opacity:1;" offset="0" id="stop4691"/>
      <stop style="stop-color:#306998;stop-opacity:1;" offset="1" id="stop4693"/>
    </linearGradient>
    <linearGradient id="linearGradient1475" gradientUnits="userSpaceOnUse" gradientTransform="matrix(0.686854, 0, 0, 0.693485, 139.611994, 155.577925)" x1="150.96111" y1="192.35176" x2="112.03144" y2="137.27299" href="#linearGradient4671"/>
    <linearGradient id="linearGradient4671">
      <stop style="stop-color:#ffd43b;stop-opacity:1;" offset="0" id="stop4673"/>
      <stop style="stop-color:#ffe873;stop-opacity:1" offset="1" id="stop4675"/>
    </linearGradient>
  </defs>
  <path fill="#fff" d="M 0 0 L 512 0 L 512 512 L 0 512 L 0 0 Z" style=""/>
  <g transform="matrix(0.371156, 0, 0, 0.371156, 263.236, 153.154)" style="">
    <g transform="matrix(1.16747, 0, 0, 1.16747, 34.0841, 55.9798)">
      <g id="standard_product_icon">
        <rect id="bounding" class="cls-1" width="512" height="512" style="fill: none;"/>
        <g id="art">
          <path class="cls-4" d="M144.4,272c-6.4,0-12.4-3.8-14.9-10.1L55.4,75.9c-3.3-8.2.7-17.5,8.9-20.8,8.2-3.3,17.5.7,20.8,8.9l74.2,186c3.3,8.2-.7,17.5-8.9,20.8-1.9.8-3.9,1.1-5.9,1.1h0Z" style="fill: rgb(251, 188, 4);"/>
          <g id="b">
            <path class="cls-5" d="M256,272c-6.4,0-12.4-3.8-14.9-10.1l-74.1-186c-2.6-6.6-.6-14.1,5-18.5,5.6-4.4,13.4-4.5,19.2-.4l260.1,186c7.2,5.1,8.9,15.1,3.7,22.3s-15.1,8.9-22.3,3.7L216.9,114.7l54,135.3c3.3,8.2-.7,17.5-8.9,20.8-1.9.8-4,1.1-5.9,1.1h0Z" style="fill: rgb(234, 67, 53);"/>
          </g>
          <path class="cls-3" d="M127.2,256l-72,180c-3.3,8.2.7,17.5,8.9,20.8s4,1.1,5.9,1.1c6.3,0,12.4-3.8,14.9-10.1l74.4-186c.8-2,1.1-4,1.1-5.9h-33.2Z" style="fill: rgb(52, 168, 83);"/>
          <path class="cls-2" d="M414.5,256l-197.7,141.2,54.1-135.3c.8-2,1.1-4,1.1-5.9h-33.2l-72,180c-2.6,6.6-.6,14.1,5,18.5,2.9,2.3,6.4,3.4,9.9,3.4s6.5-1,9.3-3l260.4-186c4.4-3.1,6.7-8,6.7-13h-43.5Z" style="fill: rgb(66, 133, 244);"/>
        </g>
      </g>
    </g>
  </g>
  <g transform="matrix(1.14831, 0, 0, 1.14831, -139.91, -25.5916)" style="">
    <path fill="#fff" d="M 162.133 189.092 L 272.372 189.092 L 299.767 216.487 L 299.767 350.065 L 162.133 350.065 L 162.133 189.092 Z" style="stroke: rgb(0, 0, 0); stroke-width: 10px;">
      <title>Paper</title>
    </path>
    <path d="M 95.029 66.774 L 122.422 94.167 L 95.029 94.167 L 95.029 66.774 Z" style="stroke: rgb(0, 0, 0); stroke-linejoin: bevel; fill: rgb(255, 255, 255); stroke-width: 10px;" transform="matrix(0.999999997036, 0.0000769999, -0.000078, 0.999999996959, 177.35, 122.31)" bx:shape="triangle 95.029 66.774 27.393 27.393 0 0 1@f76ac13b">
      <title>Corner</title>
    </path>
  </g>
  <path d="M -219.591 -198.04 L -205.412 -173.481 L -233.77 -173.481 L -219.591 -198.04 Z" style="transform-box: fill-box; transform-origin: 50% 50%;" transform="matrix(0, 1, -1, 0, 472.758001, 464.552495)" bx:shape="triangle -233.77 -198.04 28.358 24.559 0.5 0 1@67131cbc">
    <title>Arrow</title>
  </path>
  <g id="svg2" transform="matrix(0.83372, 0, 0, 0.83372, 64.8996, -50.2593)" style="">
    <path style="fill: url(&quot;#linearGradient1478&quot;); fill-opacity: 1;" d="M 224.97 169.867 C 219.373 169.893 214.029 170.37 209.326 171.203 C 195.473 173.65 192.957 178.773 192.957 188.22 L 192.957 200.697 L 225.696 200.697 L 225.696 204.856 L 192.957 204.856 L 180.672 204.856 C 171.157 204.856 162.826 210.575 160.22 221.454 C 157.214 233.923 157.081 241.705 160.22 254.725 C 162.546 264.417 168.104 271.323 177.619 271.323 L 188.874 271.323 L 188.874 256.366 C 188.874 245.561 198.223 236.028 209.326 236.028 L 242.026 236.028 C 251.127 236.028 258.395 228.534 258.395 219.393 L 258.395 188.22 C 258.395 179.348 250.91 172.683 242.026 171.203 C 236.402 170.266 230.566 169.842 224.97 169.867 Z M 207.266 179.902 C 210.647 179.902 213.409 182.708 213.409 186.16 C 213.409 189.598 210.647 192.378 207.266 192.378 C 203.872 192.378 201.123 189.598 201.123 186.16 C 201.123 182.708 203.872 179.902 207.266 179.902 Z" id="path1948"/>
    <path style="fill: url(&quot;#linearGradient1475&quot;); fill-opacity: 1;" d="M 262.478 204.856 L 262.478 219.393 C 262.478 230.663 252.922 240.149 242.026 240.149 L 209.326 240.149 C 200.369 240.149 192.957 247.816 192.957 256.785 L 192.957 287.959 C 192.957 296.831 200.673 302.049 209.326 304.595 C 219.69 307.641 229.627 308.192 242.026 304.595 C 250.268 302.208 258.395 297.406 258.395 287.959 L 258.395 275.482 L 225.696 275.482 L 225.696 271.323 L 258.395 271.323 L 274.763 271.323 C 284.278 271.323 287.823 264.686 291.131 254.725 C 294.55 244.47 294.405 234.608 291.131 221.454 C 288.781 211.981 284.289 204.856 274.763 204.856 L 262.478 204.856 Z M 244.086 283.799 C 247.48 283.799 250.229 286.581 250.229 290.019 C 250.229 293.471 247.48 296.276 244.086 296.276 C 240.704 296.276 237.943 293.471 237.943 290.019 C 237.943 286.581 240.704 283.799 244.086 283.799 Z" id="path1950"/>
  </g>
</svg>