<?xml version="1.0" encoding="utf-8"?>
<svg viewBox="0 0 600 400" xmlns="http://www.w3.org/2000/svg">
  <text style="fill: rgb(243, 123, 33); font-family: Arial, sans-serif; font-size: 172.5px; font-weight: 700; white-space: pre;" x="326.354" y="259.866">JS</text>
  <g transform="matrix(1, 0, 0, 1, 18.20471, 4.342506)">
    <path fill="#F37B21" d="M 182.507 259.389 L 155.327 190.506 L 115.48 253.29 L 90.498 253.29 L 146.149 163.424 L 139.901 145.663 L 118.232 145.663 L 118.232 124.5 L 155.325 124.5 L 197.931 232.842 L 216.663 226.74 L 222.905 247.728 L 182.507 259.389 Z" style=""/>
    <path fill="none" stroke="#F37B21" stroke-width="34" d="M 262.591 195.657 C 262.591 255.903 213.761 304.728 153.52 304.728 C 93.28 304.728 44.448 255.904 44.448 195.657 C 44.448 135.418 93.278 86.587 153.52 86.587 C 213.76 86.587 262.591 135.418 262.591 195.657 Z" style=""/>
  </g>
</svg>